<?xml version="1.0" encoding="UTF-8"?>
<svg id="Layer_1" xmlns="http://www.w3.org/2000/svg" version="1.1" viewBox="0 0 200 200">
  <!-- Generator: Adobe Illustrator 29.0.1, SVG Export Plug-In . SVG Version: 2.1.0 Build 192)  -->
  <defs>
    <style>
      .st0 {
        fill: #cc8546;
      }

      .st1 {
        fill: #262626;
      }

      .st2 {
        fill: #442a19;
      }

      .st3 {
        fill: #d9985f;
      }

      .st4 {
        fill: #662711;
      }

      .st5 {
        fill: #f39208;
      }

      .st6 {
        fill: #9a3a18;
      }

      .st7 {
        fill: #7c6b59;
      }

      .st8 {
        fill: #ccbba0;
      }

      .st9 {
        fill: #fff;
      }

      .st10 {
        fill: #eeeded;
      }

      .st11 {
        fill: #683d14;
      }

      .st12 {
        fill: #117988;
      }

      .st13 {
        fill: #585857;
      }

      .st14 {
        fill: #15899a;
      }

      .st15 {
        fill: #f8b273;
      }

      .st16 {
        fill: #3d3d3b;
      }

      .st17 {
        fill: #e6352b;
      }
    </style>
  </defs>
  <g>
    <g>
      <path class="st6" d="M76.98,89.23s-.14.02-.42.07c-.27.04-.68.12-1.2.19-1.05.12-2.6.23-4.51.15-1.91-.07-4.17-.34-6.63-.69-2.47-.34-5.15-.74-7.96-.85-2.8-.12-5.43.3-7.92.63-1.23.19-2.44.29-3.56.38-1.13.06-2.2.06-3.16-.06-1.93-.19-3.42-.72-4.32-1.22-.47-.22-.77-.47-.99-.62-.21-.15-.33-.23-.33-.23,0,0,.13.07.36.19.24.12.57.33,1.06.49.94.38,2.41.73,4.26.76.92.03,1.93-.05,3-.17,1.08-.17,2.22-.33,3.44-.58,2.42-.44,5.22-.98,8.21-.85,2.96.12,5.69.62,8.13,1.07,2.44.46,4.62.88,6.47,1.11,1.85.24,3.37.29,4.42.29,1.05-.04,1.64-.06,1.64-.06Z"/>
      <path class="st6" d="M75.88,89.12s-.1.08-.29.22c-.18.15-.48.34-.88.58-.8.46-2.1,1-3.82,1.28-1.72.29-3.83.33-6.1.07-2.27-.23-4.69-.71-7.2-.94-1.26-.13-2.47-.14-3.64-.08-.59.06-1.16.12-1.72.18-.57.09-1.12.18-1.67.27-2.18.39-4.23.77-5.98.77-1.75.01-3.15-.3-4.03-.64-.45-.15-.76-.33-.98-.45-.21-.12-.32-.18-.32-.18,0,0,.12.04.35.13.23.09.56.22,1.02.31.9.22,2.26.35,3.91.19.83-.09,1.71-.22,2.67-.45.95-.2,1.98-.46,3.07-.72.56-.12,1.12-.24,1.71-.36.6-.1,1.22-.17,1.84-.26,1.27-.11,2.6-.11,3.92.02,2.66.24,5.05.8,7.23,1.14,2.17.36,4.15.48,5.81.36,1.66-.12,2.96-.48,3.81-.82.42-.18.75-.33.96-.45.21-.11.33-.17.33-.17Z"/>
      <path class="st6" d="M75.16,89.76s-.48.03-1.33.08c-.43,0-.96-.02-1.58-.05-.61-.07-1.32-.12-2.07-.27-1.53-.25-3.3-.72-5.21-1.3-1.91-.57-3.97-1.25-6.16-1.74-1.1-.22-2.17-.41-3.22-.45-.26-.02-.52-.03-.78-.04-.26,0-.51.01-.76.02-.5,0-1.01.05-1.5.1-2,.15-3.75.42-5.29.6-1.55.18-2.84.11-3.69-.07-.42-.1-.74-.18-.95-.27-.21-.07-.32-.11-.32-.11,0,0,.12.02.34.06.22.05.55.09.96.12.84.06,2.06-.03,3.51-.36,1.46-.33,3.25-.77,5.27-1.04.5-.08,1.02-.16,1.58-.19.28-.02.56-.04.84-.06.28,0,.57.01.86.02,1.16.02,2.33.2,3.5.44,2.33.52,4.4,1.29,6.26,1.97,1.85.69,3.51,1.29,4.95,1.69.71.22,1.38.34,1.96.49.59.1,1.1.19,1.52.25.85.08,1.32.12,1.32.12Z"/>
      <path class="st6" d="M75.03,89.34s-6.15,1.7-13.92,3.03c-3.86.69-7.55,1.07-10.2.74-.33-.04-.64-.07-.94-.11-.29-.06-.56-.12-.82-.17-.25-.05-.49-.1-.71-.15-.22-.05-.4-.13-.58-.18-.68-.23-1.06-.36-1.06-.36,0,0,.4.06,1.11.17.18.02.37.07.59.08.22.01.46.03.71.04.25.02.52.03.81.05.29,0,.59-.01.91-.02,2.56,0,5.99-.67,9.87-1.36,7.77-1.33,14.21-1.78,14.21-1.78Z"/>
      <path class="st6" d="M76.47,88.87s-.55.17-1.55.48c-.5.16-1.14.27-1.88.44-.37.09-.77.13-1.19.2-.42.06-.87.15-1.35.18-1.9.22-4.18.28-6.7.2-2.52-.07-5.26-.3-8.12-.49-2.85-.19-5.56-.29-8.01-.15-2.43.12-4.63.6-6.59.65-1.95.1-3.53-.34-4.44-.82-.24-.11-.43-.24-.59-.35-.17-.1-.29-.21-.39-.3-.19-.17-.29-.27-.29-.27,0,0,.12.08.34.22.1.08.24.16.42.24.17.09.37.19.61.27.94.36,2.45.62,4.28.36,1.82-.19,3.97-.83,6.53-1.08,2.53-.27,5.34-.25,8.24-.05,2.9.19,5.62.5,8.09.69,2.47.19,4.7.29,6.57.24.47,0,.91-.04,1.33-.06.42-.03.82-.03,1.19-.08.73-.09,1.38-.13,1.9-.23,1.04-.18,1.61-.28,1.61-.28Z"/>
      <path class="st4" d="M75.59,89.4s-.43.16-1.2.44c-.78.27-1.94.61-3.42.91-1.48.27-3.3.5-5.29.54-1,.04-2.04.04-3.1.06-1.05.02-2.19.02-3.35,0-1.13-.04-2.24-.08-3.31-.12-.53-.03-1.04,0-1.54,0-.25,0-.5,0-.75,0-.25.02-.49.04-.74.05-1.94.11-3.71.3-5.2.42-.75.06-1.42.11-2.02.16-.6.02-1.11.04-1.53.05-.84.02-1.3.03-1.3.03,0,0,.45-.08,1.28-.23.41-.07.91-.16,1.49-.26.58-.11,1.24-.24,1.97-.39,1.46-.27,3.2-.62,5.19-.86.25-.03.5-.06.75-.1.26-.02.52-.03.79-.05.53-.02,1.08-.07,1.62-.06,1.1,0,2.21.03,3.35.07,1.13.02,2.24.04,3.3.05,1.08.01,2.12.06,3.1.08,1.96.08,3.7.02,5.18-.09,1.47-.13,2.66-.32,3.47-.47.82-.16,1.27-.25,1.27-.25Z"/>
      <path class="st4" d="M76.85,89.4s-.55.16-1.56.45c-1.03.2-2.55.51-4.46.52-1.91.05-4.18-.12-6.65-.42-2.47-.29-5.15-.67-7.94-.74-.7-.04-1.38.02-2.06.02-.33.03-.66.06-.99.08-.33.03-.66.05-.97.11-1.27.17-2.48.52-3.69.82-.62.14-1.21.3-1.83.37-.31.04-.6.1-.91.11-.3,0-.6.01-.89.02-.29.02-.57-.02-.85-.04-.28-.03-.55-.04-.81-.08-.52-.11-1.02-.17-1.48-.31-1.84-.49-3.2-1.12-4.13-1.55-.93-.43-1.43-.69-1.43-.69,0,0,.54.18,1.52.51.98.32,2.41.79,4.21,1.11.45.09.93.11,1.41.18.25.02.5.01.75.02.25,0,.51.02.77-.02.26-.02.52-.05.79-.07.27-.03.53-.1.81-.15.54-.09,1.1-.28,1.67-.44,1.15-.35,2.42-.78,3.81-1,.34-.08.7-.11,1.05-.15.36-.04.71-.07,1.07-.11.72-.01,1.46-.08,2.19-.03,2.95.07,5.67.55,8.1.95,2.43.41,4.61.73,6.47.84,1.86.15,3.36.01,4.4-.07,1.03-.17,1.6-.26,1.6-.26Z"/>
      <path class="st4" d="M75.16,89.73s-.12.03-.35.1c-.23.05-.57.18-1.03.25-.91.17-2.28.27-3.95.08-.42-.05-.85-.1-1.3-.19-.45-.08-.91-.17-1.38-.29-.95-.22-1.94-.53-2.96-.83-1.02-.32-2.09-.59-3.2-.9-1.12-.22-2.26-.53-3.46-.64-2.38-.31-4.73-.26-6.87-.11-1.08.06-2.08.16-3.06.22-.98.08-1.9.07-2.74.04-1.68-.08-3.02-.4-3.86-.74-.44-.14-.73-.33-.95-.43-.21-.11-.32-.16-.32-.16,0,0,.12.04.35.11.23.06.55.21,1,.29.87.22,2.18.38,3.78.29.8-.05,1.68-.12,2.61-.27.94-.13,1.97-.3,3.06-.42,2.17-.27,4.64-.41,7.21-.08,1.3.12,2.5.46,3.67.73,1.13.35,2.23.68,3.22,1.06,1.02.36,1.94.72,2.83,1.01.44.15.87.28,1.29.39.42.13.82.21,1.21.3,1.56.33,2.87.4,3.78.35.46-.01.8-.09,1.04-.11.24-.03.37-.04.37-.04Z"/>
      <path class="st4" d="M76.65,89.76s-.53-.04-1.48-.1c-.48.03-1.06.02-1.72.08-.33.04-.69.08-1.07.12-.38.04-.77.12-1.19.18-1.67.26-3.65.72-6.01.83-2.38.14-4.92-.42-7.42-.94-1.26-.26-2.47-.5-3.65-.64-1.19-.14-2.35-.21-3.47-.27-2.24-.12-4.31-.2-6.02-.44-1.72-.23-3.07-.59-3.96-.91-.45-.15-.78-.31-1.01-.4-.22-.1-.34-.15-.34-.15,0,0,.13.04.37.1.24.07.59.17,1.05.27.92.21,2.28.4,3.96.47,1.69.08,3.71,0,5.99,0,1.14,0,2.35.03,3.61.14,1.26.11,2.55.34,3.83.61,2.55.54,4.89,1.12,7.06,1.11,2.17.02,4.2-.27,5.92-.38.43-.02.84-.06,1.23-.07.39,0,.76,0,1.11,0,.69.01,1.28.09,1.76.13.94.2,1.46.3,1.46.3Z"/>
    </g>
    <path class="st4" d="M75.59,89.4s-.35.23-1.01.63c-.68.37-1.69.89-3.04,1.36-1.35.46-3.02.91-4.96,1.1-.95.07-1.95.13-2.99.18-.26.01-.52.04-.79.03-.26,0-.53-.01-.8-.02-.54-.02-1.08-.04-1.63-.05-1.11-.03-2.16-.11-3.17-.19-1.02-.08-1.99-.17-2.92-.19-.93-.04-1.82-.12-2.64-.12-.83,0-1.6,0-2.31,0-.35,0-.69-.02-1.01,0-.32.02-.62.04-.9.06-.56.03-1.05.06-1.45.08-.8.04-1.24.06-1.24.06,0,0,.43-.09,1.2-.26.39-.08.87-.17,1.42-.29.28-.05.58-.11.89-.17.32-.06.66-.08,1.01-.12,2.84-.44,6.88-.35,11.19-.13.53.02,1.06.04,1.58.07.26.01.52.03.77.04.26.01.51,0,.76,0,1.01-.02,1.98-.03,2.91-.04,1.82-.06,3.46-.33,4.82-.63,1.36-.3,2.42-.67,3.16-.93.72-.29,1.12-.46,1.12-.46Z"/>
  </g>
  <path class="st4" d="M86.55,101.01l-12.19-10.85c-3.07,3.79-4.58,7.99-4,12.74.32,2.61-.53,5.23-2.44,7.04l-6.38,5.43,2.66,2.81s21.11-10.5,22.35-17.18Z"/>
  <path class="st6" d="M130.8,106.49c-2.22.77-4.33,1.36-6.33,1.8,0,0,0,0,0,0-5.22,1.16-9.73,1.31-13.79.9-1.4-.13-2.74-.33-4.04-.58-5.98-1.14-11.06-3.24-16.27-4.46-3.78-.88-7.64-1.3-11.96-.55l-4.58-12.54c1.25-3.39,6.54-5.6,10.58-5.71,2.84.38,5.52.68,8.07.89,5.94.5,11.19.54,16.08.17,5.34-.4,10.24-1.29,15.17-2.64l7.07,22.7Z"/>
  <path class="st4" d="M124.47,108.29s0,0,0,0c-5.22,1.16-9.73,1.31-13.79.9-1.4-.13-2.74-.33-4.04-.58-5.98-1.14-11.06-3.24-16.27-4.46-.13-.1-.27-.19-.4-.29,0,0,.22-1.37.14-3.32,3.51,5.81,20.59,9.52,31.15,6.1l3.21,1.63Z"/>
  <path class="st12" d="M126.23,80.29l-7.54-3.63c-1.07,0-1.94-.87-1.94-1.94v-.04c0-1.07.87-1.94,1.94-1.94l7.85,3.8,7.2-2.44.66,1.7-8.18,4.48Z"/>
  <path class="st16" d="M150.47,74.59l-.91-2.96s.01,0,.02.01h0s0,.02,0,.02h0s0,0,0,0h0c0-.07,0,.1,0,.08h0s0-.05,0-.05c0-.05,0,0,0,0-.04.04-.28.05-.7-.12-.4-.17-1.08-.47-1.74-.71-.34-.1-.69-.19-1.04-.29-.35-.07-.71-.13-1.07-.2-1.42-.21-2.8-.21-3.81-.19-1.01.03-1.69.05-1.69.05,0,0,.65.17,1.63.42.97.26,2.27.64,3.45,1.18.29.14.57.29.86.43.26.16.52.32.77.48.48.36.84.66,1.33,1.06.48.37,1.09.72,1.71.83.63.11,1.1-.02,1.2-.03Z"/>
  <path class="st16" d="M145.44,73.69l1.62-2.65c-.12-.04-1.1-.55-2.45-.64-1.35-.13-2.91.17-4.34.52-1.41.36-2.77.68-3.82.69-.52.02-.97-.02-1.27-.08-.31-.06-.48-.09-.48-.09,0,0,.16.08.45.21.28.14.72.3,1.26.42,1.08.28,2.59.33,4.04.35,1.44.02,2.82.16,3.68.5.88.32,1.25.73,1.32.75Z"/>
  <path class="st16" d="M141.82,74.19l1.35-2.79c-.07-.02-.38-.12-.86-.25-.48-.09-1.13-.17-1.84-.13-.71.06-1.48.19-2.23.42-.75.22-1.52.52-2.18.75-1.41.45-2.9.73-4.02.8-.56.04-1.03.04-1.36,0-.33-.03-.52-.05-.52-.05,0,0,.18.07.49.18.31.12.79.24,1.36.34,1.15.21,2.71.32,4.33.22.84-.07,1.56-.16,2.25-.19.68-.03,1.29.03,1.77.11.98.18,1.38.58,1.46.59Z"/>
  <path class="st16" d="M140.81,75.85v-3.1c-.12,0-.89.11-2.05.18-1.15.08-2.72.09-4.29.2-1.57.08-3.12.38-4.23.64-1.1.33-1.82.55-1.82.55,0,0,.75-.03,1.88-.08,1.13.03,2.61.11,4.09.41,1.48.27,2.98.64,4.2.86,1.21.24,2.11.32,2.22.35Z"/>
  <path class="st16" d="M144.81,73.36l-.55-3.05c-.06,0-.39.19-1,.32-.59.17-1.49.2-2.4.19-.94-.04-1.87-.09-2.59-.09-.7,0-1.17,0-1.17,0,0,0,.43.19,1.07.47.63.26,1.48.69,2.34,1.11.89.39,1.86.78,2.72.91.84.17,1.51.13,1.59.15Z"/>
  <path class="st16" d="M138.64,74.53l-.28-3.09c-.27.06-4.07.77-7.4,2.38-1.67.78-3.21,1.75-4.29,2.56-.55.38-.95.78-1.25,1.02-.29.25-.46.39-.46.39,0,0,.19-.1.54-.29.35-.17.81-.46,1.42-.72,1.2-.54,2.84-1.14,4.55-1.53,3.41-.81,6.94-.71,7.18-.73Z"/>
  <path class="st16" d="M140.16,74.93l.43-3.07c-.16,0-2.4.08-4.6.15-2.2.09-4.36.18-4.36.18,0,0,8.23,2.64,8.53,2.74Z"/>
  <path class="st16" d="M134.75,75.95l.02-3.1c-.12.02-1,.18-2.25.4-.31.06-.64.12-.99.18-.34.11-.69.22-1.06.34-.72.25-1.49.47-2.23.76-1.43.71-2.85,1.31-3.78,2.03-.95.64-1.58,1.06-1.58,1.06,0,0,.71-.25,1.78-.63,1.03-.45,2.54-.68,3.98-.99.74-.1,1.49-.11,2.18-.17.35-.02.68-.05,1-.07.32.02.63.04.91.06,1.12.07,1.9.12,2.01.13Z"/>
  <path class="st16" d="M131.99,78.75l-.7-3.02c-.09.04-.8.31-1.74.74-.95.44-2.1,1.05-3.22,1.63-1.12.56-2.26,1.01-3.18,1.23-.45.13-.84.15-1.11.21-.27.04-.43.07-.43.07,0,0,.16.02.43.06.27.03.67.13,1.16.14.97.07,2.29-.04,3.6-.25,1.29-.22,2.56-.47,3.51-.6.95-.13,1.6-.17,1.69-.19Z"/>
  <path class="st16" d="M128.74,80.97l-.4-3.08c-.33.08-8.89,2.72-8.89,2.72,0,0,8.95.36,9.29.35Z"/>
  <path class="st16" d="M125.38,81.81l-.8-3c-.13.04-1.82.88-3.66,1.46-.92.24-1.85.53-2.56.63-.72.13-1.19.22-1.19.22,0,0,.47.1,1.19.25.72.18,1.7.28,2.71.41,2.02.18,4.15.03,4.31.02Z"/>
  <path class="st16" d="M123.71,83.21l-1-2.94c-.06.03-.5.25-1.14.56-.31.19-.74.28-1.16.44-.43.16-.91.3-1.4.41-.97.25-1.97.43-2.72.58-.75.14-1.24.23-1.24.23,0,0,.5.1,1.24.24.75.14,1.75.34,2.8.46.52.09,1.06.13,1.57.14.52.01,1.01.08,1.45.02.87-.07,1.51-.14,1.6-.15Z"/>
  <path class="st16" d="M123.87,83.56l-.63-3.04c-.2.07-2.79.98-5.35,1.94-.64.24-1.27.48-1.87.7-.58.26-1.12.51-1.59.72-.91.42-1.52.69-1.52.69,0,0,.66-.1,1.65-.24.49-.07,1.06-.15,1.68-.24.63-.05,1.3-.1,1.97-.15,2.7-.18,5.45-.37,5.65-.39Z"/>
  <path class="st16" d="M122.58,84.6l-1.53-2.7c-.05.02-.34.33-.86.68-.5.38-1.26.73-2.08,1.01-.82.26-1.71.37-2.38.37-.34.02-.62-.03-.82-.04-.2-.01-.32-.02-.32-.02,0,0,.1.05.28.15.18.09.43.25.76.37.65.28,1.59.57,2.6.68,1,.09,2.07.07,2.88-.12.82-.15,1.39-.38,1.47-.39Z"/>
  <path class="st16" d="M121.77,84.35l-.35-3.08c-.2.06-5.28,2.16-5.28,2.16,0,0,5.42.91,5.62.92Z"/>
  <path class="st16" d="M121.63,85.17l-.05-3.1c-.19.04-5.17,1.64-5.17,1.64,0,0,5.03,1.43,5.22,1.46Z"/>
  <path class="st16" d="M120.47,86.43l-.49-3.06c-.09,0-1.32.6-2.77.8-.7.04-1.46.13-2.01.04-.57-.05-.94-.09-.94-.09,0,0,.31.21.79.54.47.37,1.19.67,1.95,1.02,1.53.6,3.34.75,3.47.76Z"/>
  <rect class="st15" x="120.74" y="70.49" width="3.32" height="3.92" transform="translate(-14.13 112.34) rotate(-46.91)"/>
  <path class="st15" d="M128.62,70c-.65,2.67-.98,2.93-3.03,2.93s-4.49-1.78-4.49-4.17,1.66-4.33,3.72-4.33,4.96.86,3.8,5.57Z"/>
  <path class="st14" d="M122.41,77.21c-5.1,4.74-19.8,1.2-20.08-.05-.28-1.26,2.31-3.6,2.31-3.6,3.43-2.09,8.35-2.86,14.4-2.62,2.76-.04,4.41,3.07,3.37,6.27Z"/>
  <path class="st6" d="M120.41,86.22h10.39c3.38,3.46,3.24,17.95,0,20.44h-10.39v-20.44Z"/>
  <polygon class="st4" points="143.49 116.46 141.42 118.19 121.26 106.66 130.5 105.71 143.49 116.46"/>
  <g>
    <path class="st16" d="M125.79,71.35c-1.54.18-3.6-1.18-4.32-2.47l.46-.26c.61,1.09,2.48,2.35,3.8,2.2l.06.53Z"/>
    <path class="st16" d="M127.33,72.94c-2.37-1.76-2.85-4.99-2.86-5.12l.53-.03s.48,3.11,2.64,4.71l-.32.43Z"/>
    <path class="st1" d="M129.19,67.86c-1.52-.01-3.67-.08-4.69.15-1.43.33-1.48,1.28-3.64.93-.11-.46-.14-.94-.09-1.43.25-2.49,1.5-3.56,3.13-3.8.07-.01.13-.02.2-.03.06,0,.11-.01.17-.01.09,0,.18-.01.27-.01.27,0,.55,0,.83.03,2.05.21,3.75,1.81,3.83,4.17Z"/>
    <path class="st13" d="M124.35,67.68c-1.44.32-1.53,1.21-3.56.95.02.11.04.22.06.32,2.16.35,2.21-.6,3.64-.93,1.02-.24,3.16-.16,4.69-.15,0-.11-.01-.22-.02-.32-1.58-.02-3.77-.09-4.81.14Z"/>
    <path class="st13" d="M129.12,67.18l-2.44.67,1.89.19c.83.08,1.64.25,2.41-.07l-1.86-.79Z"/>
    <path class="st13" d="M122.92,68.49l-.14.04s-.63-2.49,1.11-4.81c.07-.01.13-.02.2-.03-1.8,2.29-1.18,4.77-1.17,4.79Z"/>
    <path class="st13" d="M126.91,67.63h-.14s.12-2.52-2.51-3.95c.09,0,.18-.01.27-.01,2.5,1.49,2.38,3.94,2.38,3.97Z"/>
    <path class="st13" d="M124.63,63.61c.02.1-.21.22-.5.26-.29.05-.54,0-.56-.1s.21-.22.5-.26c.29-.05.54,0,.56.1Z"/>
  </g>
  <path class="st4" d="M148.61,75.59l2.55-.89-3.85-6.82c-.09,2.78-.22,5.55,1.31,7.71Z"/>
  <path class="st6" d="M117.13,85.48l16.11,12.67c2.49-6.73,11.02-11.99,14.78-15.95,1.87-1.97,2.25-3.09,4.37-5.15l-.3-1.82c-7.12-6.6-21-1.04-34.96,10.26Z"/>
  <path class="st6" d="M141.9,83.91c.37.68.91,1.24,1.55,1.64,1.21.76,2.77.92,4.18.32.27-.12.53-.26.74-.42.12-.07.23-.16.34-.25l6.14,1.15,1.53,2.46c.64.94,1.9,1.22,2.87.65l.99-.57-2.62-2.51,3.52,1.66c1.61-1.58,2.15-3.11,1.51-4.57l-10.12-7.41-.43-.83-3.11-1.76c-1.29-.95-2.72-1.01-4.32-1.03l-1.79.08c0,2.66.24,4.03.02,5.85-1.45,1.25-1.99,3.35-1.19,5.19.05.11.11.22.16.33,0,0,0,.02,0,.03h.03Z"/>
  <g>
    <path class="st11" d="M148.46,84.31l6.48,1.35,1.16,1.84c.81,1.46,2.56,1.3,2.56,1.3l-1.8-3.1,3.4,1.33c1.47-.72,2.44-2.2,2.42-3.51.61,1.44.07,2.95-1.53,4.52l-3.52-1.66,2.61,2.51-.99.57c-.98.56-2.23.28-2.86-.65l-1.53-2.46-6.14-1.16c-.32.27-.68.5-1.08.67-1.19.52-3.28.87-4.98-.32,4.1.89,5.43-.87,5.81-1.23Z"/>
    <path class="st4" d="M148.46,84.31l6.48,1.35,1.16,1.84c.81,1.46,2.56,1.3,2.56,1.3l-1.8-3.1,3.4,1.33c1.47-.72,2.44-2.2,2.42-3.51.61,1.44.07,2.95-1.53,4.52l-3.52-1.66,2.61,2.51-.99.57c-.98.56-2.23.28-2.86-.65l-1.53-2.46-6.14-1.16c-.32.27-.68.5-1.08.67-1.19.52-3.28.87-4.98-.32,4.1.89,5.43-.87,5.81-1.23Z"/>
  </g>
  <path class="st6" d="M147.13,75.13l1.98-1.46.09-.07-.02-.03-3.55-5.49-.36-.56c.11,2.78.18,5.55,1.85,7.6Z"/>
  <path class="st4" d="M160.85,84.76c.24.27.67.27.97,0s.34-.69.11-.96c-.24-.27-.67-.27-.97,0s-.34.69-.11.96Z"/>
  <polygon class="st9" points="155.32 79.75 155.15 78.98 152.04 76.52 155.32 79.75"/>
  <path class="st4" d="M148.88,78.02c.17.4.71.54,1.21.32.5-.22.76-.71.58-1.11-.17-.4-.71-.54-1.21-.32-.5.22-.76.71-.58,1.11Z"/>
  <path class="st2" d="M148.98,77.81c.14.32.58.44.98.26.4-.18.61-.58.47-.9-.14-.32-.58-.44-.98-.26-.4.18-.62.58-.47.9Z"/>
  <path class="st4" d="M147.86,78.16c.93-.83,1.91-1.38,3-1.37l-.5-.51c-1.26.2-2,.76-2.5,1.88Z"/>
  <path class="st9" d="M149.97,77.28c.09.12.23.18.31.12.08-.06.07-.21-.02-.33-.09-.12-.23-.18-.31-.12-.08.06-.07.21.02.33Z"/>
  <path class="st4" d="M156.59,84.78c-4.6-3.2-4.24-5.61-4.3-7.39-.33,2.38-2.42,3.07-4.81.54.97,2.22,3.58,4.31,9.1,6.85Z"/>
  <path class="st4" d="M141.33,79.81c-.12.84-.01,1.75.37,2.62.75,1.72,2.35,2.78,3.97,2.81-1.79.5-3.71-.37-4.48-2.12-.48-1.11-.39-2.32.14-3.31Z"/>
  <rect class="st5" x="155.16" y="81.87" width="5.52" height="1.43" transform="translate(.12 165.42) rotate(-55.31)"/>
  <path class="st5" d="M155.47,85.08l.14-.47c-.06-.02-6.18-1.83-11.26-7.33l-.36.33c5.18,5.61,11.42,7.45,11.48,7.47Z"/>
  <path class="st5" d="M144.33,77.07c3.66-1.68,6.99-2.76,7.09-2.85l-.56-.51c-.1.08-2.99,1.08-6.89,3.03l.36.33Z"/>
  <path class="st8" d="M155.27,87.4c.34-.94.86-1.44,1.48-1.89.3-.22.33-.65.06-.91l-.26-.25c-.3-.29-.77-.28-1.06.02l-.09.09c-.25.26-.27.67-.04.95l.18.23c-.5.51-.84,1.01-1.01,1.51-.05.16,0,.33.14.43h0c.21.15.49.06.58-.18Z"/>
  <path class="st7" d="M155.58,85.08c.05.26.3.44.56.39.26-.05.44-.3.39-.56-.05-.26-.3-.44-.56-.39-.26.05-.44.3-.39.56Z"/>
  <path class="st4" d="M147.86,73.9c-8.12-.19-19.23,6.23-30.31,14.83,8.48-11.24,22.57-16.1,30.31-14.83Z"/>
  <path class="st4" d="M127.09,95.3l.36,1.91c.46-7.61,6.38-16.33,9.09-17.76-1.99.65-4.02,1.82-5.98,3.83-3.08,3.16-4.29,7.69-3.47,12.02Z"/>
  <path class="st4" d="M134.74,95.63s0,0,0-.02c1.98-3.79,6.41-6.85,9.6-9.72-.18-.05-3.86,0-4.12-3.8-1.13,3.52-4.35,8.16-6.32,12.52-.19.42-.37.84-.53,1.25-1.03,3.11-1.31,5.66-1.04,7.75l2.39-7.9v-.07Z"/>
  <path class="st6" d="M91.79,131.64l-2.74.75-8.82-13.77,5.44-.43c.38,3.87,3.44,8.82,6.12,13.46Z"/>
  <path class="st6" d="M90.09,92.44l-16.27-1.19c-1.5,5.81-.13,10.51,3.23,13.93,1.84,1.88,4.11,3.09,3.7,5.69l-.52,7.92,5.22.83s7.2-17.89,4.65-27.18Z"/>
  <path class="st4" d="M54.82,129.67c-.68-.63-1.31-1.3-1.02-2.56l7.74-11.73,2.66,2.81-9.39,11.48Z"/>
  <path class="st6" d="M132.75,101.94l-1.95-4.05-9.54,3.58c.05,3.37,2.18,5.98,5.6,8.11.65.41,1.4.64,2.16.69l16.52,1.1c4.79,2.94,9.9,6.52,12.59,10.09l3.45-.39-2.09-2.53-12.88-10.01-8.01-1.89c-2.56-.6-4.71-2.33-5.84-4.7Z"/>
  <path class="st6" d="M83.58,118.18c.59,1.3.32,2.69-.6,3.11-.92.42-2.15-.3-2.74-1.6-.59-1.3-.32-2.69.6-3.11.92-.42,2.15.3,2.74,1.6Z"/>
  <path class="st6" d="M146.26,108.22c1.57.62,2.51,1.95,2.11,2.98-.4,1.03-2.01,1.37-3.58.75-1.57-.62-2.51-1.95-2.11-2.98.4-1.03,2.01-1.37,3.58-.75Z"/>
  <path class="st4" d="M157.61,127.05l-16.88-12.78v3.47c4.4,2.78,8.41,6.2,10.85,9.46l4.43.51,1.6-.66Z"/>
  <path class="st4" d="M142.51,114.78c1.42.92,2.08,2.41,1.47,3.34s-2.24.94-3.65.02c-1.42-.92-2.08-2.41-1.47-3.34.6-.93,2.24-.94,3.65-.02Z"/>
  <path class="st4" d="M63.74,117.71c-.97,1.04-2.36,1.33-3.1.64-.74-.69-.55-2.1.42-3.14.97-1.04,2.36-1.33,3.1-.64.74.69.55,2.1-.42,3.14Z"/>
  <path class="st5" d="M143.65,77.25l.23-.43s-1.55-1.42-2.95-4.47l-.45.21c1.49,3.24,3.12,4.67,3.17,4.7Z"/>
  <path class="st6" d="M89.7,135.8v-.03c0-1.07-.29-2.33-.65-3.38l2.47-1.22c.63.63,1.47,1.41,2.28,2.24.75.78,1.47,1.6,1.95,2.38h-6.05Z"/>
  <path class="st4" d="M54.82,129.66c-.64.55-1.45,1.28-2.3,1.99-.87.72-1.79,1.42-2.65,1.86l.49-6.03c.36.03.75.03,1.15,0,.77-.05,1.58-.19,2.3-.38l1.02,2.56Z"/>
  <path class="st6" d="M90.92,130.8l-3.1.05s.09.11.22.26c.08.09.14.2.17.33.04.13.1.29.12.46.08.66-.31,1.41-.31,1.41-.03-.02.82-.04,1.64-.66.19-.15.36-.34.53-.52.18-.18.32-.38.4-.58.2-.39.32-.7.34-.74Z"/>
  <path class="st6" d="M91.41,132.29l-3.01-.76s.25.64.13,1.45c-.09.35-.19.8-.37,1.05-.17.29-.28.48-.28.48,0,0,.22-.04.56-.1.37-.04.8-.25,1.29-.49.41-.29.92-.62,1.17-.98.29-.34.49-.62.51-.66Z"/>
  <path class="st6" d="M90.21,131.11l-3.01-.76s.07.13.17.29c.11.18.17.43.24.72.11.56-.04,1.22-.04,1.22,0,0,.16-.03.4-.08.26-.04.57-.17.93-.34.67-.34,1.26-1,1.3-1.05Z"/>
  <path class="st4" d="M54.92,128.71l-.02-3.1c-.08.01-.83.44-1.46.78-.32.15-.66.29-.93.31-.27.03-.47-.05-.48-.04,0-.01.05.2.27.46.21.28.6.55,1.01.78.83.44,1.59.77,1.61.8Z"/>
  <path class="st4" d="M55.14,127.98l.17-3.1c-.09.03-2.51,1.41-2.51,1.41,0,0,2.25,1.64,2.34,1.68Z"/>
  <path class="st4" d="M55.54,127.22l-.23-3.09s-.26.41-.6.8c-.32.35-.73.69-.73.69,0,0,.28.41.67.83.37.38.85.76.89.78Z"/>
  <path class="st4" d="M162.49,130.43l-5.49.39-.44-.98-.66-1.45-.34-.75-.03-.06-.2-.44,2.3-.1c.35.2,1.13.69,2.02,1.28.98.66,2.09,1.45,2.86,2.1Z"/>
  <path class="st6" d="M163.94,126l-4.39-1.9-.09-1.48-.08-1.17-.09-1.35,1.39.59.89.38c.33.35.83.99,1.29,1.76.56.95,1.06,2.11,1.08,3.17Z"/>
  <path class="st4" d="M156.13,127.09l-3.02-.7s.11.03.21.15c.12.13.18.34.14.61-.04.25-.23.51-.43.66-.19.15-.38.22-.38.22-.02-.03.57.57,1.61.41.49-.09,1.01-.35,1.33-.68.34-.31.5-.64.53-.67Z"/>
  <path class="st4" d="M156.54,128.79l-1.65-2.63s-.3.67-.57,1.29c-.12.31-.29.61-.39.9-.1.3,0,.47,0,.46,0,0,.13-.13.34-.12.2,0,.52.04.87.05.68.03,1.37.05,1.41.05Z"/>
  <path class="st4" d="M157.17,129.65l-.36-3.08s-.65.55-1.03,1.06c-.37.61-.55,1.13-.55,1.13,0,0,.63.11,1.09.29.25.13.47.29.61.4.14.11.23.19.24.2Z"/>
  <path class="st6" d="M161.68,121.88l-2-2.37s-.15.66-.62,1.25c-.27.28-.56.57-.8.78-.23.21-.39.35-.39.35,0,0,.2.04.51.11.3.07.72.14,1.18.2.97.08,2.03-.29,2.11-.31Z"/>
  <path class="st6" d="M159.68,121.81l-2.26-2.13s.24.36.17.83c-.05.45-.4.88-.4.88,0,0,.09.08.27.19.18.13.44.22.77.31.62.15,1.4-.05,1.45-.08Z"/>
  <path class="st6" d="M159.08,121.62l-1.29-2.82c-.04.07-1.49,2.37-1.49,2.37,0,0,2.68.46,2.78.45Z"/>
  <path class="st10" d="M104.74,73.57c-4.06.53-5.38,2.14-5.79,4.11l8.05.76c-1.17-1.67-2.11-3.31-2.26-4.87Z"/>
  <g>
    <path class="st3" d="M135.55,73.97l2.96-1.18c.7.91.44,1.35.01,1.71l-3.83.92.86-1.45Z"/>
    <path class="st15" d="M134.39,75.47c1.62-.2,2.96-.81,3.97-1.95l.49.64-.22.03c-.07.01-.13.04-.18.09-.05.05-.07.11-.07.16v.02c0,.06.04.12.09.15.06.03.13.05.2.03l.53-.1c.16-.03.3-.12.38-.24.08-.12.09-.26.03-.37l-.46-.79c-.24-.41-.81-.58-1.39-.42l-2.97.85-.41,1.88Z"/>
  </g>
  <polygon class="st10" points="123.38 73.98 122.26 73.77 119.83 71.02 121.19 70.37 123.38 73.98"/>
  <path class="st14" d="M127.25,79.75l-7.54-3.63c-1.07,0-1.94-.87-1.94-1.94v-.04c0-1.07.87-1.94,1.94-1.94l7.85,3.8,7.2-2.44.66,1.7-8.18,4.48Z"/>
  <path class="st5" d="M154.95,87.57s-.04,0-.06,0c-.4-.05-9.86-1.24-14.96-5.08l-.14-.11-1.99-8.28c-.06-.27.1-.54.37-.6.27-.06.54.1.6.37l1.91,7.93c4.93,3.6,14.25,4.77,14.34,4.78.27.03.47.28.44.56-.03.25-.25.44-.5.44Z"/>
  <path class="st5" d="M140.23,82.59c-.1,0-.21-.03-.3-.1-.22-.17-.27-.48-.1-.7l3.52-4.7c.17-.22.48-.26.7-.1.22.17.27.48.1.7l-3.52,4.7c-.1.13-.25.2-.4.2Z"/>
  <path class="st8" d="M143.15,77.6c.18.4.65.59,1.05.41s.59-.65.41-1.05c-.18-.4-.65-.59-1.05-.41-.4.18-.59.65-.41,1.05Z"/>
  <path class="st15" d="M113.34,104.96l-12.91-.79c-5.75-.57-6.58-1.83-6.39-7.57.15-4.46-1.04-8.68-1.57-10.34,5.94.5,11.19.54,16.08.17l8.05.45s3.25,3.99,4.66,7.37c1.41,3.38.35,10.72-7.92,10.71Z"/>
  <path class="st14" d="M111.04,102.74l-.36,6.47c-1.4-.13-2.74-.33-4.04-.58l.34-6.12,4.06.23Z"/>
  <path class="st14" d="M117.16,85.65c.12,1.56-3.72,5.48-9.9,5.5-8.9.02-12.01-4.83-11.73-6.6.28-1.77,4.76.5,10.95,1.47,6.19.97,10.46-3.27,10.68-.37Z"/>
  <path class="st0" d="M102.64,98.57c-.11,2.82,2.09,5.19,4.91,5.3,2.43.07,4.53-.18,6.27-.68,7.7-2.19,8.5-9.21,1.34-14.99-.38-.3-.78-.6-1.2-.9l-10.45-1.78-.86,13.06Z"/>
  <path class="st16" d="M114.03,102.36c-.13.34-.2.61-.21.83,7.7-2.19,8.5-9.21,1.34-14.99l-2.04.35s3.27,7.51.92,13.81Z"/>
  <path class="st5" d="M96.72,82.06l.2,2.32c.12,1.38,1.21,2.47,2.59,2.6l3.95.35c.73.07,1.45.22,2.13.46.75.26,1.46.61,2.11,1.06,1.99,1.6,4.34,1.69,6.95.77,1.35-.55,1.3-1.59.74-2.34l-.71-.94c-.4-.53-.95-.92-1.57-1.09-.47-.14-.99-.16-1.49-.04-.66.16-1.38.25-2.12.26-4.59.37-9.02-.67-11.75-4.05-.28-.18-.62-.12-.83.07-.01,0-.02.02-.03.03-.13.13-.22.32-.2.54Z"/>
  <path class="st16" d="M96.72,82.06l.2,2.32c.12,1.38,1.21,2.47,2.59,2.6l3.95.35c.73.07,1.45.22,2.13.46,3.63.85,8.57-.54,7.53-2.55-.47-.14-.98-.12-1.49-.04-.71.12-1.41.21-2.12.26-4.59.37-9.02-.67-11.75-4.05-.22-.27-.6-.18-.83.07-.01,0-.02.02-.03.03-.13.15-.21.34-.2.54Z"/>
  <g>
    <path class="st10" d="M112.82,84.8l-7.24-7.91c-.22-.38-.52-.71-.88-.96l-.11-.12-.03.02c-.5-.32-1.1-.51-1.74-.51h-.67c-1.75,0-3.48,1.41-3.17,3.09.38,2.1,8.5,8.55,8.5,8.55l5.08,2.06.59-1c.6-1.03.47-2.33-.34-3.21Z"/>
    <g>
      <path class="st1" d="M102.69,98.68l2.72.62,7.93-11.4c-1.37-.74-3.31-1.06-5.85-.95-2.29,3.95-3.59,7.7-4.8,11.73Z"/>
      <path class="st1" d="M101.82,101.05l1.91.43.15-.32,1.82.84,2.98.73h0c.29-.59.06-1.29-.53-1.67l-2.76-1.77-2.59-.92c-.81.91-1.14,2.07-1,2.67Z"/>
    </g>
  </g>
  <g>
    <path class="st10" d="M105.66,99.93l-.44,1.94-.16.69,3.11.84.16-.69.44-1.94c.36-1.57-.04-3.04-.89-3.27h-.03c-.85-.24-1.83.86-2.19,2.43ZM105.38,101.91l.44-1.94c.32-1.4,1.2-2.38,1.96-2.17h.03c.76.21,1.12,1.52.79,2.93l-.44,1.94-2.78-.75Z"/>
    <polygon class="st10" points="107.77 97.68 107.88 97.71 108.03 97.08 107.91 97.05 107.77 97.68"/>
    <polygon class="st1" points="107.73 97.19 108.13 97.3 109.5 91.31 109.1 91.2 107.73 97.19"/>
  </g>
  <path class="st1" d="M108.17,101.07l-1.74-1.12c-.24.67-.54,1.36-.69,2.06l2.95.73h0c.29-.59.06-1.29-.53-1.67Z"/>
  <path class="st17" d="M98.09,96.04v.71c0,.55.24.75.63.75s.63-.2.63-.75v-1.69c0-.55-.24-.76-.63-.76s-.63.21-.63.76v.23h-1.14l.22-4.45h3.18v1.1h-2.1l-.1,1.83c.22-.36.57-.56,1.05-.56.89,0,1.34.63,1.34,1.76v1.71c0,1.23-.61,1.93-1.8,1.93s-1.8-.7-1.8-1.93v-.64h1.14Z"/>
  <path class="st15" d="M95.75,135.8h-6.05v-1.29l4.09-1.09c.75.78,1.47,1.6,1.95,2.38Z"/>
  <path class="st15" d="M52.52,131.65c-.87.72-1.79,1.42-2.65,1.86l.49-6.03h1.2l.97,4.17Z"/>
  <path class="st15" d="M163.94,126l-4.39-1.9-.09-1.48,3.4.2c.56.95,1.06,2.11,1.08,3.17Z"/>
  <path class="st15" d="M162.49,130.43l-5.49.39-.44-.98,3.08-1.51c.98.66,2.09,1.45,2.86,2.1Z"/>
  <path class="st4" d="M82.26,105.73s-.23-.07-.63-.23c-.39-.17-1.04-.36-1.7-.79-1.35-.82-3.07-2.4-4.08-4.72-.91-2.36-.8-4.69-.41-6.23.16-.77.5-1.36.65-1.76.18-.4.29-.61.29-.61,0,0,.12.94.3,2.43.25,1.45.74,3.29,1.48,5.21.83,1.88,1.76,3.54,2.61,4.75.91,1.19,1.49,1.94,1.49,1.94Z"/>
  <path class="st4" d="M83.01,119.67s-.06.06-.18.15c-.12.08-.32.21-.58.25-.5.1-1.34-.14-1.7-.95-.31-.83.11-1.59.54-1.87.21-.15.45-.21.58-.23.15-.02.23-.02.23-.02-.43,1.3,0,2.16,1.1,2.67Z"/>
  <path class="st4" d="M81.41,116.29s-.23-1.84.23-3.95,1.45-3.68,1.45-3.68c0,0,.23,1.84-.23,3.95-.47,2.11-1.45,3.68-1.45,3.68Z"/>
  <path class="st4" d="M90.98,132.52s-2.22-2.2-4.33-5.33c-2.1-3.14-3.29-6.03-3.29-6.03,0,0,2.22,2.2,4.33,5.33,2.1,3.14,3.29,6.03,3.29,6.03Z"/>
  <path class="st4" d="M134.45,109.01s-.65.17-1.72.31c-1.06.13-2.6.23-4.26-.22-.83-.25-1.57-.64-2.18-1.07-.6-.46-1.07-.95-1.38-1.43-.31-.47-.5-.88-.58-1.18-.08-.29-.13-.45-.13-.45,0,0,.11.13.3.36.18.23.48.53.87.85.78.65,2,1.29,3.44,1.72,1.46.39,2.88.62,3.92.79,1.05.17,1.71.31,1.71.31Z"/>
  <path class="st4" d="M158.09,120.1s-.64-.42-1.6-1.15c-.92-.77-2.29-1.7-3.65-2.89-1.45-1.09-2.64-2.24-3.58-2.98-.91-.78-1.46-1.33-1.46-1.33,0,0,.7.27,1.8.81,1.12.49,2.53,1.42,4.02,2.53,1.4,1.22,2.59,2.42,3.3,3.42.75.97,1.16,1.6,1.16,1.6Z"/>
</svg>