<?xml version="1.0" encoding="UTF-8"?>
<svg id="Layer_1" xmlns="http://www.w3.org/2000/svg" version="1.1" viewBox="0 0 148.18 148.18">
  <!-- Generator: Adobe Illustrator 29.0.1, SVG Export Plug-In . SVG Version: 2.1.0 Build 192)  -->
  <defs>
    <style>
      .st0 {
        fill: #262626;
      }

      .st1 {
        fill: #662711;
      }

      .st2 {
        fill: #542616;
      }

      .st3 {
        fill: #b5441c;
      }

      .st4 {
        fill: #833114;
      }

      .st5 {
        fill: #f39208;
      }

      .st6 {
        fill: #fff;
      }
    </style>
  </defs>
  <path class="st0" d="M72,39c-.35.08-.77.19-1.26.34-.47.19-1.03.38-1.6.7-.99.51-2.07,1.26-3.14,2.2.02-.13.03-.25.04-.37.78-1.13,1.28-2.14,1.86-2.8.19-.27.4-.47.59-.65.1-.1.19-.18.27-.27.09-.06.18-.12.26-.18.33-.23.52-.35.52-.35.03.04-.95-.24-2.39.45-.73.31-1.45.9-2.13,1.56-.74.69-1.35,1.37-2.01,2.08-1.3,1.33-2.75,2.33-3.92,2.99-.59.32-1.1.58-1.47.73-.37.17-.58.26-.58.26,0,0,.22.06.62.13.41.09,1.01.13,1.76.09.36-.02.77-.08,1.2-.17-2.64,2.55-4.03,5.32-4.03,5.32,0,0,.98-.38,2.35-1.16-.17.17-.34.34-.51.5-1.12,1.02-2.28,1.79-3.34,2.3-.52.28-1.03.42-1.48.59-.45.12-.86.2-1.2.27-.69.06-1.07.1-1.07.1,0,0,.38.1,1.06.29.35.05.79.1,1.31.12.51-.03,1.12-.03,1.76-.18,1.08-.21,2.3-.67,3.52-1.38-1.37,1.17-2.76,2.23-3.98,3.34-1.22,1.1-2.28,2.18-3.05,3.2-.19.25-.37.49-.54.72-.15.24-.29.47-.43.69-.27.42-.48.8-.61,1.13-.27.64-.43,1-.43,1,0,0,.27-.28.75-.77.22-.26.53-.54.9-.85.18-.16.37-.33.57-.51.21-.17.44-.34.68-.52.93-.75,2.12-1.52,3.45-2.41.66-.44,1.36-.9,2.09-1.4-1.03.95-1.99,1.92-2.82,2.9-.59.77-1.18,1.46-1.6,2.23-.22.37-.44.72-.64,1.07-.16.37-.32.72-.47,1.06-.32.65-.46,1.32-.6,1.88-.07.28-.14.54-.18.78-.02.25-.03.47-.04.68-.04.79-.06,1.23-.06,1.23,0,0,.16-.41.44-1.15.07-.18.14-.38.22-.6.11-.21.24-.43.37-.67.27-.48.52-1.02.96-1.55.2-.27.4-.56.61-.85.24-.28.5-.56.76-.86.44-.55,1.03-1.07,1.59-1.63-3.13,5.94-4.69,11.1-4.69,11.1,0,0,1-1.16,2.44-3.12-.95,2.67-1.35,4.56-1.35,4.56,0,0,.94-1.04,2.21-2.78-.1.2-.2.4-.31.58-.88,1.54-1.8,2.86-2.68,3.89-.86,1.05-1.7,1.79-2.29,2.31-.62.49-.96.76-.96.76,0,0,.42-.15,1.16-.42.72-.33,1.79-.84,2.94-1.73.4-.3.81-.66,1.22-1.04-.29.6-.56,1.17-.82,1.67-.88,1.87-1.34,3.11-1.34,3.11,0,0,.96-.87,2.38-2.42.27-.28.55-.6.84-.93-1.57,2.34-3.02,4.42-4.2,6.03-.79,1.12-1.51,1.97-1.96,2.61-.46.63-.71.98-.71.98,0,0,.35-.25.98-.7.35-.27.81-.6,1.33-.99-.4.55-.78,1.1-1.11,1.65-.78,1.34-1.38,2.63-1.69,3.78-.19.55-.27,1.09-.35,1.55-.09.45-.12.85-.12,1.18,0,.64,0,1,0,1,0,0,.14-.33.39-.91.11-.29.26-.64.49-1.03.21-.39.42-.83.74-1.29.56-.94,1.36-1.95,2.26-3.06.27-.31.57-.65.86-.97-.34.69-.68,1.35-.9,2.02-.13.36-.26.71-.37,1.05-.05.22-.1.43-.15.64-3.56,5.17-5.6,9.66-5.6,9.66,0,0,1.81-1.61,4.24-4.28-.25.67-.46,1.33-.65,1.98-.93,1.44-1.64,2.9-1.92,4.24-.08.35-.13.69-.16,1.01-.71,1.07-1.32,2.06-1.87,2.85-.93,1.46-1.43,2.47-1.43,2.47,0,0,.52-.31,1.37-.9-.02.06-.05.12-.07.17-.3.77-.42,1.43-.53,1.87-.09.45-.14.7-.14.7,0,0,.18-.19.49-.52.32-.33.71-.84,1.26-1.41.02-.02.04-.04.05-.06-.12.25-.23.51-.31.76-.14.4-.23.76-.26,1.1-.04.33-.07.6-.03.84.05.46.09.69.09.69,0,0,.11-.22.3-.61.07-.19.23-.41.39-.64.07-.12.16-.24.26-.37-.07.21-.11.4-.13.56-.05.36-.06.55-.06.55,0,0,.15-.13.41-.36.12-.12.27-.25.47-.38.19-.14.38-.3.63-.44.05-.03.11-.07.16-.1-.02.17-.04.32-.06.46-1.07.86-2.07,1.66-2.85,2.35-1.24,1.1-1.95,1.88-1.95,1.88,0,0,1.02-.24,2.58-.8.34-.12.71-.26,1.11-.42-.12.12-.26.25-.38.37-.4.47-.77.92-1.1,1.35-.17.2-.3.45-.42.68-.05.1-.1.19-.15.27h2.1c.31-.22.63-.45.95-.7.13-.09.27-.19.41-.28-.06.18-.13.37-.18.53-.05.16-.09.31-.13.45h7.31c.3-.31.61-.63.9-.98,2.62-3.04,3.81-6.32,3.81-6.32,0,0-2.98,1.6-5.57,4.54.04-.06.07-.12.11-.19.03-.07.05-.13.08-.2,1.38-1.73,2.44-3.46,2.93-4.86.55-1.37.77-2.26.77-2.26,0,0-.76.57-1.8,1.56-.14.15-.32.32-.48.48,0,0,0-.01,0-.02.15-1.42.13-2.31.13-2.31,0,0-.57.71-1.3,1.88.19-.53.3-.91.35-1.09.35-1.01.49-1.61.49-1.61,0,0-.11.1-.3.29.03-.1.07-.21.1-.31.72-.79,1.11-1.35,1.11-1.35,0,0-.32.05-.85.18.02-.08.03-.17.05-.25.08-.46.12-.72.12-.72,0,0-.17.2-.48.56-.15.17-.31.38-.49.62-.23.07-.48.14-.74.23.04-.11.09-.22.13-.33.61-1.74.94-3.43,1.13-4.93.09-.09.17-.17.25-.24.32-.33.5-.51.5-.51,0,0-.24.06-.67.17.09-.86.14-1.66.16-2.36.02-.94.01-1.71,0-2.27.08-.28.16-.54.23-.79.28-.44.52-.89.77-1.33.51-.91.98-1.79,1.41-2.63.77-1.74,1.34-3.36,1.82-4.7.71-2.79,1.03-4.51,1.03-4.51,0,0-.91,1.54-2.18,4.02-.23.36-.46.74-.7,1.14-.21.15-.42.32-.65.5.38-.8.71-1.57.96-2.29.95-1.16,1.83-2.32,2.59-3.45.92-1.42,1.66-2.78,2.11-4,.26-.59.39-1.17.53-1.66.15-.49.22-.92.25-1.28.08-.7.12-1.1.12-1.1,0,0-.18.35-.5.98-.14.31-.34.69-.61,1.1-.26.41-.52.89-.9,1.38-.63.93-1.49,1.93-2.44,3.04.16-.3.3-.59.42-.87.26-.52.42-1.03.57-1.47.16-.43.26-.82.32-1.14.13-.63.19-.98.19-.98,0,0-.2.3-.55.83-.15.25-.36.54-.61.86,2.08-3.42,3.41-6.81,4.15-9.34.41-1.33.6-2.46.78-3.21.15-.76.23-1.19.23-1.19,0,0-.21.38-.6,1.05-.39.67-.87,1.68-1.56,2.86-.59,1.05-1.29,2.26-2.08,3.57.85-1.87,1.49-3.61,1.84-5.03.56-2.02.79-3.3.79-3.3,0,0-.68.88-1.64,2.35.71-2.14,1.24-4.08,1.68-5.67.18-.68.33-1.29.47-1.83.37-.36.72-.71,1.07-1.07.74-.5,1.43-.83,1.96-.98.31-.12.57-.14.74-.19.17-.04.27-.06.27-.06,0,0-.09-.02-.27-.05-.17-.02-.44-.1-.79-.09-.21-.02-.46,0-.72.01.51-.64,1-1.24,1.37-1.89.23-.37.45-.72.65-1.06.17-.37.33-.72.48-1.05.33-.65.48-1.31.63-1.87.07-.28.15-.53.19-.77.02-.25.04-.47.06-.67.05-.79.08-1.23.08-1.23,0,0-.16.41-.46,1.14-.07.18-.15.38-.23.6-.11.21-.25.43-.38.66-.27.47-.54,1.01-.98,1.54-.2.27-.41.55-.63.84-.25.27-.51.56-.77.85-.5.6-1.16,1.16-1.78,1.79-.42.38-.87.76-1.32,1.15.44-.48.87-.96,1.27-1.41.56-.61,1.03-1.24,1.45-1.85.42-.6.8-1.17,1.16-1.68.66-1.06,1.11-1.97,1.43-2.58.31-.62.48-.96.48-.96,0,0-.28.26-.79.73-.49.48-1.21,1.17-2.08,2.02-.45.41-.94.86-1.47,1.33-.45.43-.94.88-1.47,1.32.21-.23.42-.46.63-.7,1.22-1.47,2.27-2.9,3.25-4.14.98-1.23,1.93-2.27,2.82-3.07.43-.42.87-.72,1.25-1.03.39-.27.75-.49,1.04-.68.61-.32.95-.5.95-.5,0,0-.39.05-1.09.14Z"/>
  <path class="st2" d="M55.04,115.17c-4.83-25.33,7.31-36.81,8.64-69.65l13.03-1.06,13.03,1.06c1.33,32.83,13.47,44.31,8.64,69.65h-43.33Z"/>
  <path class="st5" d="M75.18,115.01h1.1c-.9-1.88-2.11-3.59-3.33-5.25-1.41-1.93-2.75-3.76-3.24-5.57-1.36-4.97-1.97-8.81-1.1-13.78l-.98-.17c-.9,5.15-.27,9.11,1.12,14.21.54,1.99,1.93,3.89,3.4,5.9,1.09,1.49,2.2,3.01,3.04,4.66Z"/>
  <path class="st5" d="M78.23,115.01h-1.1c.9-1.88,2.11-3.59,3.33-5.25,1.41-1.93,2.75-3.76,3.24-5.57,1.36-4.97,1.97-8.81,1.1-13.78l.98-.17c.9,5.15.27,9.11-1.12,14.21-.54,1.99-1.93,3.89-3.4,5.9-1.09,1.49-2.2,3.01-3.04,4.66Z"/>
  <path class="st5" d="M67.3,89.45c0-.08-.5-8.01-3.08-15.85-3.22-9.82-2.3-24.07-2.29-24.21l1,.07c0,.14-.92,14.2,2.24,23.83,2.61,7.97,3.12,16.02,3.12,16.1l-1,.06Z"/>
  <path class="st5" d="M86.1,89.45c0-.08.5-8.01,3.08-15.85,3.22-9.82,2.3-24.07,2.29-24.21l-1,.07c0,.14.92,14.2-2.24,23.83-2.61,7.97-3.12,16.02-3.12,16.1l1,.06Z"/>
  <path class="st4" d="M73.8,110.17c-2.36,0-4.28-1.62-4.28-3.62v-1.04h14.35v1.04c0,2-1.91,3.62-4.28,3.62h-5.8Z"/>
  <path class="st3" d="M76.7,95.22l-8.88-.55c.04-1.18.06-2.31.05-3.39-.07-12.78-3.47-18.8-4.86-28.11-.37-2.47-.6-5.18-.58-8.32,0-1.01.04-2.07.1-3.18h28.33c.06,1.11.09,2.17.1,3.18.02,3.14-.21,5.85-.58,8.32-1.39,9.31-4.79,15.33-4.86,28.11,0,1.08,0,2.21.05,3.39l-8.88.55Z"/>
  <path class="st3" d="M76.7,107.84c-.13,0-.26,0-.39,0-2.45,0-4.9,0-7.34-1.83-2.17-4.63-2.68-9.87-.87-14.5h17.2c1.81,4.63,1.3,9.87-.87,14.5-2.45,1.83-4.9,1.83-7.34,1.83-.13,0-.26,0-.39,0Z"/>
  <path class="st3" d="M62.54,51.67l1.53-8.26h0s1.3-7.07,1.3-7.07c4.01-1.54,7.76-2.09,11.34-2.02,3.58-.07,7.33.48,11.34,2.02l1.3,7.06h0s1.53,8.27,1.53,8.27h-28.33Z"/>
  <path class="st3" d="M57.38,23.8c4.34,4.86,8.1,9.05,10.8,12.08l-3.7,8.96c-6.32-5.56-6.41-12.05-7.1-21.03Z"/>
  <path class="st3" d="M96.02,23.8c-4.34,4.86-8.1,9.05-10.8,12.08l3.7,8.96c6.32-5.56,6.41-12.05,7.1-21.03Z"/>
  <g>
    <path class="st4" d="M57.38,24.24c.66,8.75.86,15.13,7.07,20.59l1.41-3.41c-4.88-4.46-6.8-10.08-8.48-17.18Z"/>
    <path class="st4" d="M57.38,24.24c.66,8.75.86,15.13,7.07,20.59l1.41-3.41c-4.88-4.46-6.8-10.08-8.48-17.18Z"/>
  </g>
  <g>
    <path class="st4" d="M96.02,24.24c-.66,8.75-.86,15.13-7.07,20.59l-1.41-3.41c4.88-4.46,6.8-10.08,8.48-17.18Z"/>
    <path class="st4" d="M96.02,24.24c-.66,8.75-.86,15.13-7.07,20.59l-1.41-3.41c4.88-4.46,6.8-10.08,8.48-17.18Z"/>
  </g>
  <path class="st1" d="M67.8,59.19c-.89,2.64-4.53,4.18-6.2-2.26,2.12-1.98,4.19-1.26,6.2,2.26Z"/>
  <path class="st1" d="M85.6,59.19c.89,2.64,4.53,4.18,6.2-2.26-2.12-1.98-4.19-1.26-6.2,2.26Z"/>
  <path class="st0" d="M66.57,56.91c.71,1.34.45,2.87-.58,3.42-1.03.55-2.44-.1-3.15-1.44-.71-1.34-.45-2.87.58-3.42,1.03-.55,2.44.1,3.15,1.44Z"/>
  <path class="st0" d="M86.83,56.91c-.71,1.34-.45,2.87.58,3.42,1.03.55,2.44-.1,3.15-1.44.71-1.34.45-2.87-.58-3.42-1.03-.55-2.44.1-3.15,1.44Z"/>
  <path class="st3" d="M68.04,60.21c-2.05-3.48-4.29-5.19-6.44-3.28l1.01-3.28h5.95l-.52,6.56Z"/>
  <path class="st3" d="M85.36,60.21c2.05-3.48,4.29-5.19,6.44-3.28l-1.01-3.28h-5.95l.52,6.56Z"/>
  <path class="st6" d="M63.51,57.46c0,.53.03.95-.23.95s-.48-.43-.48-.95.22-.95.48-.95.23.43.23.95Z"/>
  <path class="st6" d="M89.89,57.46c0,.53-.03.95.23.95s.48-.43.48-.95-.22-.95-.48-.95-.23.43-.23.95Z"/>
  <path class="st6" d="M76.7,85.42l-2.97-30.64c-.34-3.54.44-7.1,2.23-10.17l.74-1.27.74,1.27c1.79,3.07,2.57,6.63,2.23,10.17l-2.97,30.64Z"/>
  <path class="st4" d="M67.88,91.28c-.07-12.78-3.47-18.8-4.86-28.11,2.35.8,5.21-.24,6.35-3.67,1.42,10.53,1.08,21.6-1.49,31.78Z"/>
  <path class="st4" d="M85.53,91.28c.07-12.78,3.47-18.8,4.86-28.11-2.35.8-5.21-.24-6.35-3.67-1.42,10.53-1.08,21.6,1.49,31.78Z"/>
  <path class="st4" d="M68.53,56.47c-2.03-1.3-4.06-1.8-6.09-1.62,0-1.01.04-2.07.1-3.18l1.53-8.26h0c1.09-1.59,1.95-2.7,1.8-1.99-.95,4.55-.69,7.89-.04,10.25.87,3.18,2.44,4.58,2.7,4.8Z"/>
  <path class="st4" d="M84.88,56.47c2.03-1.3,4.06-1.8,6.09-1.62,0-1.01-.04-2.07-.1-3.18l-1.53-8.26h0c-1.09-1.59-1.95-2.7-1.8-1.99.95,4.55.69,7.89.04,10.25-.87,3.18-2.44,4.58-2.7,4.8Z"/>
  <path class="st4" d="M69.1,85.42c-.79,2.13-1.2,4.37-1.22,6.71,2.03-1.79,4.15-2.1,7.41-1.88-4.43-.61-6.46-1.17-6.19-4.83Z"/>
  <path class="st4" d="M84.31,85.42c.79,2.13,1.2,4.37,1.22,6.71-2.03-1.79-4.15-2.1-7.41-1.88,4.43-.61,6.46-1.17,6.19-4.83Z"/>
  <path class="st5" d="M76.7,89.27c-2.95,0-6.27,0-9.22,2.12l-.3-3.34c3.74-2.68,6.29-1.78,9.51-1.78h.01c3.22,0,5.77-.91,9.51,1.78l-.3,3.34c-2.95-2.12-6.27-2.12-9.22-2.12Z"/>
  <path class="st5" d="M76.65,48.36c-10.38-.36-14.77,3.56-14.82,3.6l.16-3.31c.22-.19,3.23-3.67,14.71-3.29,11.48-.38,14.49,3.09,14.71,3.29l.16,3.31s-4.44-3.96-14.82-3.6h-.1Z"/>
  <g>
    <path class="st0" d="M70.5,93.23c-1.34,0-2.43,1.7-2.43,3.79s1.09,3.79,2.43,3.79-2.59-4.13,0-4.66c2.17-.45,1.34-2.92,0-2.92Z"/>
    <path class="st0" d="M82.9,93.23c-1.34,0-2.17,2.47,0,2.92,2.59.54-1.34,4.66,0,4.66s2.43-1.7,2.43-3.79-1.09-3.79-2.43-3.79Z"/>
    <path class="st0" d="M87.17,38.11c-.07-.99-.53-2.39-1.63-3.48-1.14-1.06-2.56-1.47-3.55-1.49-.17-.01-.33,0-.49.01-.9-.36-1.75-.56-2.49-.53-.84.02-1.44.2-1.83.37-.21,0-.4.03-.56.04-.07-.07-.15-.14-.22-.21-.25-.15-.5-.28-.75-.4-1.01-.39-1.91-.32-2.58-.16-.38.06-.68.15-.95.26-1.04-.15-1.95.01-2.64.25-.78.29-1.34.63-1.72.87-.08.06-.15.1-.21.15-.11.06-.19.1-.26.14-.2.04-.38.18-.46.48.06.32.68.64.67,1.17-.08,1.08-.44,2.42-1.16,3.55-.1.14-.18.28-.26.42-.12.14-.24.28-.36.42-.23.28-.42.56-.69.89-.25.32-.48.61-.68.91-.2.34-.39.63-.5.96-.52,1.28-.15,2.1-.19,2.07,0,0,.11-.16.29-.44.07-.14.22-.28.37-.43.14-.16.33-.31.54-.47.34-.3.86-.57,1.43-.95-.49,2.06-.52,3.58-.52,3.58,0,0,.98-.96,2.08-2.56.02.57.15,1.04.28,1.34.2.37.32.54.32.54,0,0,.02-.21.06-.59.09-.37.22-.85.55-1.38.31-.53.75-1.11,1.27-1.77.04-.06.09-.12.14-.18,0,.18,0,.36,0,.52.02,1.07.15,1.77.15,1.77,0,0,.47-.53,1.05-1.43.55-.91,1.34-2.14,1.56-3.94.09-.89,0-1.82-.35-2.6-.15-.35-.34-.65-.54-.92.42.33.73.76.95,1.34.26.79.35,1.7.23,2.52-.11.42-.14.85-.27,1.25-.14.39-.23.78-.37,1.13-.28.71-.5,1.3-.66,1.7-.15.42-.24.65-.24.65,0,0,.2-.15.55-.42.36-.27.84-.69,1.4-1.27.28-.29.55-.66.84-1.05.29-.4.51-.91.76-1.42.25-.62.39-1.34.39-2.09.17.41.34.8.54,1.15.25.38.5.73.74,1.05.24.32.54.56.77.79.47.47.97.73,1.28.92.32.18.5.27.5.27,0,0,0,0,0-.01.56.55,1.15.97,1.72,1.19.27.13.55.19.78.24.23.06.43.07.6.06.33,0,.5-.02.5-.02,0,0-.13-.12-.35-.34-.11-.1-.24-.22-.36-.39-.13-.16-.28-.32-.4-.54-.55-.8-1.01-1.96-1.53-3.27-.21-.58-.46-1.15-.72-1.69.92.93,1.8,1.78,2.46,2.51.35.36.56.7.77.93.2.23.32.36.32.36,0,0,.03-.16.06-.47.01-.3.08-.77,0-1.32,0,0,0-.01,0-.02.59.89,1.12,1.75,1.56,2.46.73,1.2,1.27,1.94,1.27,1.94,0,0,.06-.91-.09-2.34-.07-.64-.21-1.4-.45-2.23.03.04.07.07.11.11.32.31.52.6.71.8.19.2.3.32.3.32,0,0,.04-.14.08-.42.03-.27.12-.69.07-1.18ZM77.69,34.5h0s0-.01,0-.01c0,0,0,0,0,.01Z"/>
  </g>
</svg>