<?xml version="1.0" encoding="UTF-8"?>
<svg id="Layer_1" xmlns="http://www.w3.org/2000/svg" version="1.1" viewBox="0 0 200 200">
  <!-- Generator: Adobe Illustrator 29.0.1, SVG Export Plug-In . SVG Version: 2.1.0 Build 192)  -->
  <defs>
    <style>
      .st0 {
        fill: #cc8546;
      }

      .st1 {
        fill: #442a19;
      }

      .st2 {
        fill: #f6f6f6;
      }

      .st3 {
        fill: #662711;
      }

      .st4 {
        opacity: .2;
      }

      .st4, .st5 {
        fill: #1e1e1c;
      }

      .st5 {
        opacity: .15;
      }

      .st6 {
        fill: #f39208;
      }

      .st7 {
        fill: #9a3a18;
      }

      .st8 {
        fill: #fff;
      }

      .st9 {
        fill: #eeeded;
      }

      .st10 {
        fill: #fab334;
      }

      .st11 {
        fill: #683d14;
      }

      .st12 {
        fill: #b1723c;
      }

      .st13 {
        fill: #3d3d3b;
      }

      .st14 {
        fill: #d6d7d7;
      }

      .st15 {
        fill: #e6352b;
      }
    </style>
  </defs>
  <rect class="st9" x="63.75" y="90.64" width="81.25" height="40.33"/>
  <polygon class="st15" points="148.26 90.64 60.48 90.64 62.81 84.72 67.01 74.06 141.73 74.06 145.93 84.72 148.26 90.64"/>
  <rect class="st14" x="63.75" y="124.95" width="81.25" height="6.02"/>
  <rect class="st14" x="63.75" y="94.12" width="81.25" height="1.26"/>
  <rect class="st14" x="63.75" y="98.47" width="81.25" height="1.26"/>
  <rect class="st14" x="63.75" y="102.82" width="81.25" height="1.26"/>
  <rect class="st14" x="63.75" y="107.17" width="81.25" height="1.26"/>
  <rect class="st14" x="63.75" y="111.52" width="81.25" height="1.26"/>
  <rect class="st14" x="63.75" y="115.87" width="81.25" height="1.26"/>
  <rect class="st14" x="63.75" y="120.22" width="81.25" height="1.26"/>
  <polygon class="st4" points="148.26 90.64 60.48 90.64 62.81 84.72 145.93 84.72 148.26 90.64"/>
  <g>
    <path class="st3" d="M96.27,89.14v-5.61c0-4.39,3.57-7.97,7.97-7.97h.14c4.39,0,7.97,3.58,7.97,7.97v5.61h-16.08Z"/>
    <path class="st2" d="M97.87,87.72v-4.3c0-3.56,2.88-6.44,6.44-6.44h.13c3.56,0,6.44,2.88,6.44,6.44v4.3h-13.01Z"/>
    <path class="st6" d="M98.71,86.88v-3.46c0-3.09,2.51-5.6,5.6-5.6h.13c3.09,0,5.6,2.51,5.6,5.6v3.46h-11.32Z"/>
    <rect class="st2" x="103.91" y="77.4" width=".8" height="9.9"/>
    <rect class="st2" x="98.3" y="82.35" width="12.02" height=".8"/>
  </g>
  <polygon class="st14" points="74.48 94.76 74.48 112.82 74.48 130.88 97.51 130.88 97.51 112.82 97.51 94.76 74.48 94.76"/>
  <rect class="st6" x="76.67" y="97.04" width="18.65" height="16.92"/>
  <rect class="st0" x="76.67" y="112.16" width="18.65" height="18.73"/>
  <rect class="st13" x="94.85" y="115.2" width=".94" height="3.88"/>
  <rect class="st13" x="94.85" y="124.09" width=".94" height="3.88"/>
  <g>
    <g>
      <path class="st3" d="M83.1,101.26l-.97.55-1.07-3.06c.89.73,1.78,1.44,2.04,2.51Z"/>
      <path class="st3" d="M91.19,110.49h-5.92l.43,1.67h8.5c.3-8.15-8.91-15.9-13.71-10.82l1.92.47c.24-.28.36-.32.7-.48l.3-.14c3.95.66,6.81,4.09,7.79,9.29Z"/>
      <path class="st7" d="M92.48,112.16h-8.13c.02-2.5-.82-5.55-1.44-7.72-.31-1.08-.55-1.83-.93-2.99l1.31-.99c3.71.53,8.15,4.54,9.18,11.71Z"/>
      <path class="st3" d="M84.7,101.07c2.57,1.59,5.24,5.72,5.97,11.08h1c-.83-5.75-4-9.8-6.97-11.08Z"/>
      <path class="st3" d="M85.79,104.59c-.8,1.61-.73,4.99-1,7.56h-.43c.02-2.5-.82-5.55-1.44-7.72v-1.28l2.87,1.44Z"/>
      <path class="st7" d="M85.79,104.59c0-.83-.55-1.54-1.3-1.77-.39-.65-.75-1.36-1.18-2.37l-.5.22c-.6.27-1.11.73-1.44,1.3l-.89,1.18-.03.39-2.61,4.48c0,.66.45,1.15,1.33,1.48l1.06-1.21-.57,1.38.47.05c.46.05.89-.26.98-.72l.17-1.19,2.14-1.45c.17.05.34.07.52.07.97,0,1.76-.74,1.85-1.69h0s0-.01,0-.01c0-.05,0-.1,0-.15Z"/>
      <g>
        <path class="st11" d="M83.36,106l-2.23,1.58-.13.89c-.07.69-.75.92-.75.92l.17-1.47-1.07,1.06c-.68-.03-1.29-.43-1.5-.93,0,.65.46,1.13,1.33,1.46l1.06-1.21-.57,1.38.47.05c.46.05.89-.26.98-.72l.17-1.19,2.14-1.45c.17.05.34.07.52.07.54,0,1.02-.23,1.36-.59-1.06.57-1.73.22-1.93.15Z"/>
        <path class="st3" d="M83.36,106l-2.23,1.58-.13.89c-.07.69-.75.92-.75.92l.17-1.47-1.07,1.06c-.68-.03-1.29-.43-1.5-.93,0,.65.46,1.13,1.33,1.46l1.06-1.21-.57,1.38.47.05c.46.05.89-.26.98-.72l.17-1.19,2.14-1.45c.17.05.34.07.52.07.54,0,1.02-.23,1.36-.59-1.06.57-1.73.22-1.93.15Z"/>
      </g>
      <path class="st7" d="M83.93,100.9l-.98.29h-.05s0,0,0,0l-.92-2.54-.09-.26c.89.73,1.78,1.44,2.04,2.51Z"/>
      <path class="st3" d="M82.96,101.19h-.05l-.92-2.54c.78.81,1.74,1.85.97,2.54Z"/>
      <path class="st3" d="M79.04,108.12c0,.18-.16.33-.36.33s-.36-.15-.36-.33.16-.33.36-.33.36.15.36.33Z"/>
      <polygon class="st8" points="80.77 103.48 80.77 103.15 81.81 101.89 80.77 103.48"/>
      <path class="st3" d="M82.16,103.68c0,.18-.18.32-.4.32s-.4-.14-.4-.32.18-.32.4-.32.4.14.4.32Z"/>
      <path class="st1" d="M82.08,103.62c0,.14-.15.26-.33.26s-.33-.12-.33-.26.15-.26.33-.26.33.12.33.26Z"/>
      <path class="st3" d="M82.57,103.57c-.49-.16-.95-.21-1.36-.02l.11-.28c.51-.13.88-.04,1.26.3Z"/>
      <path class="st8" d="M81.62,103.58c-.01.06-.06.1-.1.1-.04,0-.06-.07-.05-.13.01-.06.06-.1.1-.1s.06.07.05.13Z"/>
    </g>
    <rect class="st7" x="91.67" y="109.74" width="4.49" height="2.42"/>
  </g>
  <rect class="st12" x="95.32" y="97.04" width="18.65" height="15.12"/>
  <rect class="st13" x="94.85" y="98.34" width=".94" height="3.88"/>
  <rect class="st13" x="94.85" y="106.71" width=".94" height="3.88"/>
  <g>
    <rect class="st10" x="111.93" y="121.52" width="13.77" height="9.46" rx="1.82" ry="1.82"/>
    <path class="st5" d="M111.93,123.34v5.82c0,1,.81,1.82,1.82,1.82h10.13c1,0,1.82-.81,1.82-1.82-4.84,1.1-12.28-1.19-13.77-5.82Z"/>
    <rect class="st13" x="115.1" y="121.52" width=".5" height="9.46"/>
    <rect class="st13" x="122.42" y="121.52" width=".5" height="9.46"/>
    <rect class="st13" x="111.93" y="126" width="13.77" height=".5"/>
  </g>
  <g>
    <rect class="st10" x="119.16" y="112.16" width="13.77" height="9.46" rx="1.82" ry="1.82"/>
    <path class="st5" d="M119.16,113.97v5.82c0,1,.81,1.82,1.82,1.82h10.13c1,0,1.82-.81,1.82-1.82-4.84,1.1-12.28-1.19-13.77-5.82Z"/>
    <rect class="st13" x="122.33" y="112.16" width=".5" height="9.46"/>
    <rect class="st13" x="129.64" y="112.16" width=".5" height="9.46"/>
    <rect class="st13" x="119.16" y="116.63" width="13.77" height=".5"/>
  </g>
  <g>
    <rect class="st10" x="126.04" y="102.7" width="13.77" height="9.46" rx="1.82" ry="1.82"/>
    <path class="st5" d="M126.04,104.52v5.82c0,1,.81,1.82,1.82,1.82h10.13c1,0,1.82-.81,1.82-1.82-4.84,1.1-12.28-1.19-13.77-5.82Z"/>
    <rect class="st13" x="129.21" y="102.7" width=".5" height="9.46"/>
    <rect class="st13" x="136.53" y="102.7" width=".5" height="9.46"/>
    <rect class="st13" x="126.04" y="107.18" width="13.77" height=".5"/>
  </g>
  <g>
    <rect class="st10" x="132.93" y="112.16" width="13.77" height="9.46" rx="1.82" ry="1.82"/>
    <path class="st5" d="M132.93,113.97v5.82c0,1,.81,1.82,1.82,1.82h10.13c1,0,1.82-.81,1.82-1.82-4.84,1.1-12.28-1.19-13.77-5.82Z"/>
    <rect class="st13" x="136.1" y="112.16" width=".5" height="9.46"/>
    <rect class="st13" x="143.41" y="112.16" width=".5" height="9.46"/>
    <rect class="st13" x="132.93" y="116.63" width="13.77" height=".5"/>
  </g>
  <g>
    <rect class="st10" x="125.7" y="121.52" width="13.77" height="9.46" rx="1.82" ry="1.82"/>
    <path class="st5" d="M125.7,123.34v5.82c0,1,.81,1.82,1.82,1.82h10.13c1,0,1.82-.81,1.82-1.82-4.84,1.1-12.28-1.19-13.77-5.82Z"/>
    <rect class="st13" x="128.87" y="121.52" width=".5" height="9.46"/>
    <rect class="st13" x="136.19" y="121.52" width=".5" height="9.46"/>
    <rect class="st13" x="125.7" y="126" width="13.77" height=".5"/>
  </g>
  <g>
    <rect class="st10" x="139.47" y="121.52" width="13.77" height="9.46" rx="1.82" ry="1.82"/>
    <path class="st5" d="M139.47,123.34v5.82c0,1,.81,1.82,1.82,1.82h10.13c1,0,1.82-.81,1.82-1.82-4.84,1.1-12.28-1.19-13.77-5.82Z"/>
    <rect class="st13" x="142.64" y="121.52" width=".5" height="9.46"/>
    <rect class="st13" x="149.96" y="121.52" width=".5" height="9.46"/>
    <rect class="st13" x="139.47" y="126" width="13.77" height=".5"/>
  </g>
</svg>