<?xml version="1.0" encoding="UTF-8"?>
<svg id="Layer_1" xmlns="http://www.w3.org/2000/svg" version="1.1" viewBox="0 0 148.18 148.18">
  <!-- Generator: Adobe Illustrator 29.0.1, SVG Export Plug-In . SVG Version: 2.1.0 Build 192)  -->
  <defs>
    <style>
      .st0 {
        fill: #442a19;
      }

      .st1 {
        fill: #4e1f11;
      }

      .st2 {
        fill: #662711;
      }

      .st3 {
        fill: #f39208;
      }

      .st4 {
        fill: #9a3a18;
      }

      .st5 {
        fill: #7c6b59;
      }

      .st6 {
        fill: #ccbba0;
      }

      .st7 {
        fill: #fff;
      }

      .st8 {
        fill: #bf7413;
      }

      .st9 {
        fill: #683d14;
      }
    </style>
  </defs>
  <path class="st8" d="M49.37,88.81c-.3,0-.53-.24-.54-.53,0-.3.24-.54.53-.54.38,0,37.96-.14,55.57-9.17.26-.14.59-.03.72.23.13.26.03.59-.23.72-17.84,9.15-55.67,9.29-56.05,9.29h0Z"/>
  <g>
    <path class="st2" d="M58.6,49.4l-5.11,2.89-5.63-16.08c4.68,3.84,9.39,7.6,10.74,13.19Z"/>
    <path class="st2" d="M101.13,97.94h-31.14v3.83h44.72c.02-35.12-44.61-78.74-69.89-51.96l10.08,2.48c1.24-1.5,1.87-1.69,3.67-2.5l1.59-.72c20.76,3.47,35.84,21.53,40.98,48.87Z"/>
    <path class="st1" d="M100.4,97.86l1.78,1.95c.06-.02.24-.42,1.06-.72.4-.15.92-.26,1.54-.3.62-.05,1.31-.04,2.05-.09.18-.01.36-.02.54-.04.18-.03.37-.06.55-.09.36-.05.71-.15,1.04-.26.65-.23,1.21-.55,1.63-.88.22-.15.39-.33.55-.47.15-.16.28-.28.38-.4.19-.24.29-.37.29-.37,0,0-.13.1-.37.29-.12.09-.28.18-.45.29-.18.09-.38.21-.61.31-.45.21-1.01.37-1.61.43-.3.03-.6.05-.92,0-.16-.01-.31-.02-.47-.04-.16-.02-.33-.05-.49-.08-.65-.11-1.33-.28-2.02-.39-.69-.12-1.42-.16-2.07-.08-.65.08-1.25.24-1.66.47-.42.2-.67.42-.73.45Z"/>
    <path class="st1" d="M100.72,90.74l-.62,2.56c.11,0,.97.15,2.15.05,1.17-.09,2.65-.48,3.92-1.2.64-.37,1.17-.8,1.67-1.18.49-.33.94-.7,1.39-.86.44-.17.84-.22,1.13-.2.28.01.44.08.44.07,0,0-.14-.09-.42-.18-.28-.09-.72-.15-1.24-.08-.54.05-1.08.31-1.7.54-.28.12-.58.25-.88.38-.3.14-.6.21-.89.32-1.21.34-2.46.35-3.36.2-.91-.14-1.48-.4-1.57-.41Z"/>
    <path class="st1" d="M100.16,86.18l-1.1,2.4c.09.02.68.25,1.75.44.53.08,1.23.12,1.93-.09.7-.22,1.2-.6,1.67-.88.44-.3.88-.48,1.37-.58.48-.11.95-.09,1.35-.04.4.06.74.17.96.26.23.1.35.16.35.16,0,0-.11-.09-.3-.25-.2-.16-.5-.36-.9-.55-.41-.18-.92-.35-1.5-.39-.57-.05-1.26.02-1.85.21-.58.17-1.1.33-1.47.32-.37,0-.71-.13-1.03-.28-.63-.31-1.16-.69-1.23-.72Z"/>
    <path class="st1" d="M99.2,83.56l-.97,2.45c.12.02,1.03.35,2.33.32.64,0,1.38-.11,2.11-.32.18-.06.37-.11.55-.18.18-.08.36-.15.54-.23.34-.18.7-.36,1.01-.56.63-.4,1.2-.82,1.75-1.16.54-.35,1.08-.6,1.57-.74.49-.14.92-.17,1.22-.16.15,0,.27.03.35.04.08.01.13.02.13.02,0,0-.04-.02-.12-.05-.08-.03-.19-.08-.34-.12-.3-.09-.76-.16-1.31-.13-.55.03-1.2.17-1.85.4-.66.22-1.32.51-1.97.73-1.28.49-2.54.47-3.47.27-.93-.19-1.46-.56-1.55-.58Z"/>
    <path class="st1" d="M98.19,81.32l-.66,2.55c.06,0,.31.05.69.05.38,0,.87-.06,1.39-.22.52-.16,1.05-.41,1.55-.72.24-.16.49-.32.72-.49.23-.17.45-.33.68-.5.44-.33.88-.63,1.31-.87.43-.23.87-.38,1.25-.45.39-.08.72-.05.96-.02.23.05.37.09.37.09,0,0-.12-.07-.33-.19-.22-.09-.56-.23-1-.27-.44-.05-.96-.03-1.51.08-.55.12-1.11.3-1.65.5-.26.09-.53.19-.79.28-.26.09-.5.15-.73.23-.46.13-.88.18-1.22.18-.68,0-.97-.22-1.02-.22Z"/>
    <path class="st1" d="M97.98,77.48l-1.47,2.19c.06.03.29.14.65.3.19.06.41.13.66.2.25.05.54.1.84.12.61.04,1.3-.03,1.98-.24.17-.06.34-.13.51-.2.17-.07.33-.17.49-.26.17-.08.3-.2.44-.31.14-.11.29-.21.41-.32.24-.22.48-.45.69-.66.11-.11.21-.21.32-.31.11-.09.21-.18.31-.27.4-.37.84-.59,1.26-.7.41-.11.79-.09,1.04,0,.13.03.21.09.28.12.07.03.1.05.1.05,0,0-.03-.02-.08-.07-.06-.04-.13-.13-.25-.2-.23-.15-.63-.29-1.13-.29-.49,0-1.09.13-1.65.41-.14.07-.28.14-.42.21-.13.08-.27.15-.4.23-.28.16-.53.29-.79.44-.13.07-.26.11-.38.17-.13.05-.25.12-.37.13-.12.03-.24.06-.36.08-.12.01-.24.02-.36.03-.47,0-.9-.06-1.25-.19-.17-.06-.32-.14-.45-.2-.12-.08-.23-.14-.32-.2-.16-.14-.26-.22-.28-.24Z"/>
    <path class="st1" d="M96.94,74.85l-1.64,2.06s.26.18.59.27c.33.11.75.14,1.13.09.39-.05.72-.15,1.05-.25.34-.1.7-.21,1.06-.32.72-.21,1.41-.48,1.93-.66.52-.19.86-.31.86-.31,0,0-.36-.04-.91-.09-.55-.06-1.27-.11-1.99-.23-.36-.05-.72-.11-1.07-.16-.35-.05-.66-.1-.84-.17-.19-.07-.24-.15-.23-.19h0s-.02.02-.03.03h0s.03-.05.03-.05h0s0,0,0,0h0s0,0,0,0h0s.02-.01.02-.01Z"/>
    <path class="st1" d="M94.73,72.56l-.83,2.5c.06.01.31.06.71.12.19.04.43.03.69.04.26.02.55,0,.85-.03.61-.05,1.29-.22,1.97-.49.67-.28,1.32-.69,1.88-1.18.54-.5.96-1.02,1.36-1.46.21-.2.41-.41.62-.57.21-.16.43-.28.64-.37.42-.19.83-.22,1.1-.17.28.04.43.12.43.11,0,.01-.13-.11-.4-.22-.27-.12-.72-.2-1.24-.11-.26.05-.54.12-.82.24-.29.12-.55.29-.84.45-.54.35-1.08.75-1.61,1.04-.53.27-1.09.45-1.63.53-.54.07-1.04.07-1.46,0-.85-.12-1.34-.42-1.41-.43Z"/>
    <path class="st1" d="M94.06,70.45l-1.07,2.41c.05,0,.28.1.63.13.35.04.8,0,1.25-.13.45-.14.89-.37,1.29-.68.18-.15.36-.31.53-.47.15-.16.32-.33.46-.49.29-.32.56-.63.83-.88.27-.25.56-.45.82-.59.27-.14.52-.19.69-.23.18-.01.29-.02.29-.02,0,0-.1-.03-.28-.09-.18-.03-.46-.09-.8-.05-.34.03-.74.12-1.14.28-.4.16-.8.36-1.19.55-.19.1-.38.17-.56.26-.18.07-.35.13-.51.18-.31.08-.59.1-.79.07-.41-.07-.43-.25-.45-.24Z"/>
    <path class="st1" d="M92.17,67.31l-.83,2.5c.1,0,.95.25,2.04,0,.54-.12,1.13-.34,1.67-.72.55-.38.97-.9,1.29-1.36.33-.47.61-.9.93-1.24.16-.16.32-.32.5-.43.17-.14.35-.2.53-.26.36-.1.69-.08.91,0,.22.06.33.16.33.15,0,0-.08-.11-.29-.25-.2-.14-.55-.28-1-.29-.45,0-.98.16-1.48.44-.49.28-.94.67-1.36,1-.43.33-.83.58-1.2.69-.38.12-.76.13-1.06.1-.62-.06-.94-.31-.99-.31Z"/>
    <path class="st1" d="M104.16,98.13l-1.45,2.2c.1.04.8.43,1.85.67.52.13,1.14.19,1.78.2.64-.02,1.31-.08,1.95-.26.32-.07.6-.2.89-.3.28-.1.55-.19.81-.29.25-.08.5-.18.74-.25.23-.06.46-.09.67-.1.42-.03.77.04,1.01.13.12.04.21.09.27.12.06.03.09.05.09.05,0,0-.03-.03-.08-.07-.05-.05-.12-.12-.23-.19-.21-.16-.56-.34-1.03-.43-.23-.05-.49-.09-.76-.09-.27,0-.54.03-.83.04-.28.02-.57.04-.87.06-.28.01-.58.06-.85.05-.54,0-1.08-.1-1.56-.22-.48-.15-.91-.31-1.26-.51-.7-.38-1.07-.76-1.13-.8Z"/>
    <path class="st1" d="M102.88,93.42l-1.19,2.35c.06.02.33.11.74.22.41.08.98.15,1.59.09,1.24-.1,2.55-.68,3.71-1.28.57-.3,1.13-.58,1.67-.81.54-.21,1.05-.39,1.51-.46.11-.02.22-.05.33-.05.11,0,.21,0,.3-.01.1,0,.19,0,.27-.01.08,0,.16.02.22.02.28.03.43.05.43.05,0,0-.15-.06-.41-.16-.07-.02-.14-.06-.22-.08-.08-.02-.17-.04-.27-.06-.1-.02-.2-.04-.31-.07-.11-.02-.23-.02-.35-.03-.5-.06-1.08,0-1.71.07-.61.1-1.27.23-1.9.38-1.24.29-2.47.46-3.25.3-.39-.07-.66-.19-.85-.28-.17-.12-.28-.18-.31-.19Z"/>
    <path class="st1" d="M91.74,65.04l-1.74,1.98s.21.13.47.26c.14.05.3.11.48.16.18.04.38.07.6.08.43.02.91-.06,1.36-.26.11-.06.22-.12.33-.18.11-.07.21-.15.31-.23.19-.16.33-.35.46-.52.45-.71.62-1.26,1.05-1.51.19-.13.4-.18.54-.17.08,0,.13.02.17.03.04,0,.06.01.06.01,0,0-.02-.01-.05-.04-.03-.02-.08-.07-.15-.11-.14-.08-.39-.14-.7-.11-.3.03-.66.17-.97.38-.32.21-.6.44-.87.59-.13.06-.25.12-.36.14-.06,0-.1.02-.15.02h-.15c-.2-.04-.36-.11-.47-.2-.23-.17-.2-.33-.22-.33Z"/>
    <path class="st1" d="M89.95,62.54l-1.08,2.41c.05,0,.3.11.67.12.38.03.83-.07,1.24-.26.4-.19.78-.49,1.07-.82.28-.32.5-.65.71-.92l.16-.21c.05-.06.11-.11.16-.17.06-.05.11-.12.17-.17.06-.04.13-.09.19-.13.06-.04.12-.09.19-.13.07-.03.14-.06.21-.09.14-.06.27-.13.41-.16.26-.09.49-.15.65-.18.16-.04.25-.06.25-.06,0,0-.09-.02-.26-.05-.16-.03-.4-.07-.69-.11-.15-.02-.31-.03-.48-.03-.09,0-.18,0-.27,0-.09,0-.19.03-.29.05-.1.02-.21.04-.31.06-.11.02-.2.07-.3.11-.1.04-.21.08-.31.13l-.28.15c-.38.2-.7.4-.98.52-.27.12-.49.15-.65.13-.15-.02-.21-.07-.19-.12,0-.04.04-.06.04-.05Z"/>
    <path class="st1" d="M86.33,59.55l-.85,2.49c.05.01.28.05.62.09.17.01.37,0,.6,0,.22,0,.47-.05.73-.09.51-.13,1.08-.3,1.59-.66.51-.33,1-.81,1.29-1.31.31-.49.52-.96.76-1.33.22-.4.5-.67.8-.87.3-.18.6-.26.82-.25.21,0,.34.06.34.05,0,0-.1-.08-.32-.16-.22-.09-.58-.12-.99-.02-.4.09-.88.34-1.26.7-.41.34-.76.74-1.13,1.03-.69.59-1.51.69-2.09.62-.14-.04-.27-.05-.38-.09-.11-.04-.2-.07-.28-.1-.14-.08-.23-.12-.25-.13Z"/>
    <path class="st1" d="M84.53,57.59l-1.24,2.33s.24.09.53.14c.29.05.67.04,1.05-.05.38-.09.75-.26,1.08-.49.28-.23.57-.49.82-.72.22-.23.45-.48.65-.67.21-.19.42-.35.62-.46.2-.11.39-.16.52-.19.14-.02.22-.03.22-.03,0,0-.08-.03-.21-.08-.14-.04-.35-.09-.62-.09-.27,0-.58.04-.91.12-.32.09-.63.19-.96.3-.31.09-.59.14-.85.2-.23.02-.42-.02-.55-.07-.25-.12-.16-.24-.17-.23Z"/>
    <path class="st1" d="M82.33,55.36l-.92,2.47s.25.06.56.09c.31.02.73.02,1.16-.09.89-.18,1.81-.8,2.43-1.5.64-.7,1.06-1.44,1.42-1.97.34-.54.57-.9.57-.9,0,0-.34.25-.86.62-.52.36-1.21.89-1.91,1.23-.71.34-1.4.44-1.84.34-.44-.08-.58-.28-.61-.28Z"/>
    <path class="st1" d="M78.59,55l.45,2.6c.09-.04.84-.23,1.7-.79.44-.27.88-.65,1.29-1.08.4-.46.77-.97,1.04-1.53.26-.55.42-1.09.6-1.52.04-.12.1-.21.15-.31.05-.1.1-.21.16-.28.11-.18.25-.31.4-.43.29-.24.6-.34.83-.35.23-.02.36.04.36.03,0,.01-.11-.08-.35-.14-.24-.06-.62-.06-1.04.11-.2.09-.43.2-.63.37-.11.08-.19.18-.29.27-.09.1-.2.2-.28.3-.36.43-.65.89-.99,1.25-.32.36-.72.65-1.1.88-.39.21-.77.38-1.11.46-.67.19-1.14.15-1.2.17Z"/>
    <path class="st1" d="M76.92,53.29l.84,2.5c.07-.04.58-.27,1.34-.78.37-.26.81-.6,1.19-1.07.09-.12.18-.25.27-.38.08-.14.15-.29.21-.43.07-.14.1-.29.14-.44l.06-.22.03-.2c.05-.28.07-.51.1-.74.01-.12.04-.21.05-.32.02-.11.04-.21.07-.3.11-.38.33-.72.56-.97.23-.26.48-.42.66-.54.19-.1.3-.15.3-.15,0,0-.12.02-.34.05-.21.05-.52.12-.86.32-.34.19-.72.48-1.04.91-.08.11-.15.22-.21.33-.06.11-.14.24-.19.35-.11.23-.22.46-.32.65-.22.4-.43.64-.73.81-.29.17-.62.29-.92.37-.61.16-1.15.22-1.21.24Z"/>
    <path class="st1" d="M74.27,51.45l1.92,1.81c.07-.11,1.06-1.64,2.03-3.13.12-.18.24-.36.35-.53.11-.19.24-.3.36-.46.06-.07.12-.15.18-.21.07-.06.13-.11.2-.17.13-.12.28-.19.41-.28.13-.09.27-.13.39-.18.12-.06.23-.08.32-.1.19-.05.29-.07.29-.07,0,0-.11-.01-.3-.04-.1-.01-.22-.03-.35-.02-.14.01-.3,0-.47.03-.7.07-1.6.6-2.31,1.15-1.44,1.06-2.9,2.13-3.01,2.21Z"/>
    <path class="st1" d="M72.57,49.03l-.41,2.6c.07,0,.36.04.82-.07.44-.11.94-.39,1.31-.81.4-.43.62-.96.77-1.44.14-.48.22-.92.35-1.3.12-.4.3-.68.57-.91.28-.22.68-.36,1.01-.51.33-.13.6-.32.76-.45.14-.16.21-.25.21-.25,0,0-.1.06-.27.15-.19.07-.45.14-.79.15-.34.03-.75.01-1.26.16-.51.16-1.02.56-1.33.99-.34.43-.59.87-.83,1.19-.24.31-.46.5-.62.55-.17.07-.28.03-.28,0,0-.04,0-.07,0-.07Z"/>
    <path class="st1" d="M69.98,48.53l1.72,2c.04-.06.36-.4.82-1.09.22-.35.47-.8.58-1.37.02-.14.04-.29.05-.43,0-.14,0-.28-.02-.42l-.06-.37-.08-.32c-.05-.2-.1-.38-.12-.56-.02-.18-.08-.37-.06-.55,0-.18,0-.36.01-.53.02-.17.06-.32.08-.47.04-.31.15-.53.21-.71.06-.17.1-.27.1-.27,0,0-.07.08-.19.21-.12.14-.33.32-.49.61-.09.14-.19.29-.28.46-.08.18-.16.37-.24.56-.1.2-.12.42-.18.65-.06.23-.1.46-.12.68l-.05.3-.06.26-.08.19c-.03.06-.07.1-.1.15-.15.19-.35.35-.55.49-.42.28-.84.5-.88.53Z"/>
    <path class="st1" d="M67.56,48.11l1.01,2.43s.27-.14.53-.38c.27-.24.53-.61.7-1.04.17-.43.24-.91.23-1.39-.02-.22-.05-.45-.08-.67-.05-.2-.09-.42-.14-.61-.1-.39-.2-.75-.25-1.08-.05-.33-.05-.64,0-.91.04-.27.14-.48.22-.63.1-.14.15-.21.15-.21,0,0-.09.05-.23.14-.13.11-.34.28-.51.55-.17.27-.33.61-.43,1-.1.39-.16.81-.23,1.19-.03.2-.07.37-.11.55-.05.17-.1.32-.14.46-.11.25-.25.44-.38.54-.28.19-.32.03-.32.05Z"/>
    <path class="st1" d="M63.94,48.88l2.57-.14s.02,0,.03,0c.02,0,.04,0,.02,0,0,0-.02,0-.05-.02-.02-.02-.02-.05-.04-.1-.02-.04,0-.12,0-.2.02-.09.04-.18.1-.31.06-.13.13-.27.2-.41.08-.17.17-.35.26-.53l.13-.28c.04-.1.07-.21.11-.32.27-.86.11-1.69-.11-2.21-.12-.26-.23-.46-.33-.59-.1-.12-.15-.2-.15-.2,0,0,.02.09.05.24.04.15.05.37.04.62-.03.5-.23,1.15-.64,1.55-.05.05-.09.1-.15.15l-.19.14c-.13.1-.25.2-.37.29-.15.12-.29.23-.42.34-.14.11-.28.27-.41.41-.12.17-.24.31-.32.48-.08.18-.16.33-.21.49-.08.32-.1.55-.11.6Z"/>
    <path class="st1" d="M62.52,47.21l2.61.36c0-.05-.06-.43-.16-.95-.07-.53-.28-1.12-.45-1.73-.37-1.17-.74-2.32-.74-2.32,0,0-.28,1.17-.56,2.36-.16.58-.28,1.18-.45,1.57-.15.4-.25.67-.26.7Z"/>
    <path class="st1" d="M57.91,52.25l.84-2.5c-.05-.03-.48-.05-1.09-.31-.6-.25-1.36-.81-1.87-1.59-.13-.19-.26-.39-.35-.61-.05-.11-.1-.21-.15-.32-.04-.11-.08-.23-.12-.34-.14-.47-.32-.96-.59-1.31-.28-.34-.61-.51-.85-.55-.24-.04-.37.01-.37,0,0,0,.14,0,.33.1.19.1.41.33.54.65.11.33.13.74.12,1.23,0,.13,0,.26,0,.39.02.14.03.28.05.42.02.29.1.57.18.86.32,1.15,1.05,2.2,1.8,2.86.74.66,1.43.96,1.51,1.01Z"/>
    <path class="st1" d="M55.44,52.53l1.87-1.86c-.12-.09-1.74-1.28-3.39-2.44-.42-.29-.83-.57-1.22-.84-.39-.26-.8-.48-1.17-.61-.37-.13-.7-.15-.92-.14-.11,0-.19.03-.25.04-.06.01-.09.02-.09.02,0,0,.13,0,.33.05.2.05.47.17.74.38.27.21.55.5.82.86.27.37.56.76.85,1.15,1.15,1.61,2.33,3.25,2.42,3.37Z"/>
    <path class="st1" d="M54.6,54.68l1.09-2.4s-.18-.06-.4-.14c-.11-.04-.25-.09-.4-.14-.15-.05-.3-.15-.48-.23-.17-.1-.38-.17-.56-.3-.19-.13-.38-.26-.59-.4-.21-.14-.37-.33-.58-.5-.1-.09-.2-.17-.29-.27l-.28-.31c-.38-.43-.8-.92-1.31-1.27-.51-.35-1.07-.49-1.52-.53-.46-.03-.83.04-1.07.11-.24.08-.37.13-.37.13,0,0,.14-.02.39-.03.25,0,.59.04.97.18.37.14.78.39,1.07.75.29.37.52.84.77,1.37l.2.41c.07.13.16.27.24.4.17.26.32.55.51.78.19.24.38.47.56.69.18.23.4.39.58.57.19.17.36.35.53.47.18.12.33.23.46.33.27.19.44.3.48.33Z"/>
    <path class="st4" d="M105.64,101.77h-42.77c.1-13.14-2.06-24.26-5.28-35.69-1.61-5.68-2.88-9.62-4.88-15.74l6.9-5.21c19.52,2.77,40.58,18.93,46.03,56.65Z"/>
    <path class="st2" d="M66.99,48.4c13.5,8.37,25.28,25.13,29.15,53.37h5.24c-4.37-30.26-18.78-46.64-34.39-53.37Z"/>
    <path class="st2" d="M72.71,66.91c-4.23,8.5-6.1,21.3-7.56,34.86h-2.28c.1-13.14-2.06-24.26-5.28-35.69v-6.72l15.13,7.56Z"/>
    <path class="st4" d="M72.71,66.91c0-4.38-2.89-8.09-6.86-9.32-2.04-3.42-3.94-7.16-6.23-12.47l-2.62,1.18c-3.17,1.43-5.82,3.82-7.57,6.83l-4.66,6.22-.14,2.03-13.72,23.58c-.01,3.47,2.39,6.05,7,7.81l5.56-6.38-3.02,7.28,2.47.27c2.44.27,4.68-1.38,5.14-3.8l.91-6.24,11.24-7.66c.87.25,1.79.39,2.74.39,5.09,0,9.27-3.9,9.71-8.88l.04-.03s-.02-.03-.04-.05c.02-.26.04-.53.04-.8Z"/>
    <g>
      <path class="st9" d="M59.94,74.31l-11.74,8.34-.71,4.67c-.35,3.61-3.97,4.82-3.97,4.82l.89-7.75-5.62,5.6c-3.56-.15-6.79-2.26-7.89-4.9.04,3.41,2.44,5.95,6.99,7.69l5.57-6.38-3.03,7.28,2.47.27c2.44.27,4.68-1.38,5.14-3.8l.91-6.24,11.24-7.66c.87.25,1.79.39,2.74.39,2.82,0,5.36-1.2,7.14-3.12-5.58,2.99-9.09,1.14-10.15.76Z"/>
      <path class="st2" d="M59.94,74.31l-11.74,8.34-.71,4.67c-.35,3.61-3.97,4.82-3.97,4.82l.89-7.75-5.62,5.6c-3.56-.15-6.79-2.26-7.89-4.9.04,3.41,2.44,5.95,6.99,7.69l5.57-6.38-3.03,7.28,2.47.27c2.44.27,4.68-1.38,5.14-3.8l.91-6.24,11.24-7.66c.87.25,1.79.39,2.74.39,2.82,0,5.36-1.2,7.14-3.12-5.58,2.99-9.09,1.14-10.15.76Z"/>
    </g>
    <path class="st4" d="M62.95,47.49l-5.13,1.53-.24.07-.03-.07-4.85-13.36-.49-1.36c4.68,3.84,9.39,7.6,10.74,13.19Z"/>
    <path class="st2" d="M57.82,49.01h-.26l-4.85-13.36c4.12,4.27,9.14,9.75,5.12,13.36Z"/>
    <path class="st2" d="M37.23,85.49c0,.95-.86,1.73-1.91,1.73s-1.91-.77-1.91-1.73.86-1.73,1.91-1.73,1.91.77,1.91,1.73Z"/>
    <polygon class="st7" points="46.3 61.05 46.3 59.35 51.81 52.7 46.3 61.05"/>
    <ellipse class="st2" cx="51.5" cy="62.12" rx="2.13" ry="1.7"/>
    <path class="st0" d="M53.23,61.8c0,.76-.77,1.38-1.73,1.38s-1.73-.62-1.73-1.38.77-1.38,1.73-1.38,1.73.62,1.73,1.38Z"/>
    <path class="st2" d="M55.77,61.51c-2.57-.85-5.01-1.09-7.18-.12l.56-1.46c2.7-.7,4.65-.22,6.62,1.58Z"/>
    <path class="st7" d="M50.8,61.6c-.07.32-.3.55-.51.5-.21-.05-.32-.35-.25-.67.07-.32.3-.55.51-.5.21.05.32.35.25.67Z"/>
    <path class="st2" d="M90.37,101.77h-7.67c6.27-10.15,1.86-25.2-1.9-30.72,5.71,5.89,9.95,15.17,9.57,30.72Z"/>
    <path class="st2" d="M45.41,81.85c6.38-10.39,3.56-14.87,2.13-18.48,2.73,4.45,7.5,4.02,10.05-3.12,0,5.26-3.39,11.71-12.18,21.6Z"/>
    <path class="st2" d="M70.66,58c.98,1.58,1.55,3.49,1.55,5.55,0,4.1-2.26,7.6-5.47,9.06,4-.56,7.08-3.98,7.08-8.14,0-2.63-1.24-4.97-3.16-6.47Z"/>
  </g>
  <rect class="st3" x="37.77" y="73.57" width="3.12" height="12" transform="translate(-49.03 71.22) rotate(-58.3)"/>
  <path class="st3" d="M46.64,81.95l-.68-.82c.11-.09,10.73-9.03,16.06-24.43l1.01.35c-5.43,15.69-16.28,24.81-16.39,24.9Z"/>
  <path class="st3" d="M61.87,56.28c-7.66-3.44-9.76-4.03-11.44-4.51-.27-.08-.54-.15-.82-.23l.31-1.03c.27.08.53.15.8.23,1.72.48,3.86,1.09,11.59,4.56l-.44.98Z"/>
  <path class="st3" d="M63.37,56.03l-.84-.67s1.61-2.18,1.75-9.48l1.07.02c-.15,7.76-1.91,10.03-1.98,10.12Z"/>
  <path class="st3" d="M59.77,78.72l-.93-.54c2.24-3.88,6.81-8.02,7.96-9.03l-3.38-12.13,1.03-.29,3.56,12.79-.26.22c-.06.05-5.56,4.77-7.98,8.98Z"/>
  <path class="st6" d="M48.63,89.06c-1.34-2.3-2.94-3.38-4.79-4.26-.89-.43-1.18-1.56-.6-2.36l.55-.77c.64-.9,1.89-1.1,2.78-.46l.29.2c.79.56,1.03,1.63.57,2.48l-.37.68c1.55,1.1,2.7,2.26,3.37,3.49.21.39.14.88-.17,1.19v.02c-.49.48-1.28.37-1.62-.21Z"/>
  <circle class="st5" cx="45.41" cy="83.14" r="1.29"/>
  <circle class="st6" cx="62.95" cy="56.3" r="1.73"/>
  <path class="st3" d="M85.71,92.33c-17.24,0-35.23-3.3-36.45-3.52-.29-.05-.48-.33-.43-.62.05-.29.33-.48.62-.43.48.09,48.2,8.84,62.98-1.85.24-.17.57-.12.75.12.17.24.12.57-.12.75-5.87,4.24-16.46,5.56-27.36,5.56Z"/>
</svg>