<?xml version="1.0" encoding="UTF-8"?>
<svg id="Layer_1" xmlns="http://www.w3.org/2000/svg" version="1.1" viewBox="0 0 148.18 148.18">
  <!-- Generator: Adobe Illustrator 29.0.1, SVG Export Plug-In . SVG Version: 2.1.0 Build 192)  -->
  <defs>
    <style>
      .st0 {
        fill: #262626;
      }

      .st1 {
        fill: #dadada;
      }

      .st2 {
        fill: #fff;
      }

      .st3 {
        fill: #7e4f25;
      }

      .st4 {
        fill: #eeeded;
      }

      .st5 {
        fill: #878787;
      }

      .st6 {
        fill: #585857;
      }

      .st7 {
        fill: #f8b273;
      }

      .st8 {
        fill: #3d3d3b;
      }
    </style>
  </defs>
  <path class="st7" d="M67.8,79.65v-4.26c2.02,2.34,3.69,2.92,7.53,2.92.02,0,.04,0,.05,0h.02s.04,0,.05,0c3.83,0,5.5-.57,7.53-2.92v4.26c-.94,3.72-2.99,6.53-7.59,7.25-4.24-1.05-6.93-3.35-7.59-7.25Z"/>
  <path class="st7" d="M75.46,78.3s-.04,0-.05,0h-.02s-.04,0-.05,0c-3.83,0-5.5-.57-7.53-2.92-.89-1.03-1.85-2.41-3.1-4.24-1.05-1.54-1.88-3.85-2.5-6.77-.08.03-.15.06-.24.07-.26.05-.54.01-.8-.09-1.12-.42-1.46-2.01-1.8-4.07-.41-2.54-.29-4.8,1.11-5.03.77-.13,1.55.38,2.18,1.28v-6.83c0-2.99,2.42-5.41,5.41-5.41h14.62c2.99,0,5.42,2.42,5.42,5.41v6.83c.63-.9,1.42-1.41,2.18-1.28,1.41.23,1.64,2.49,1.23,5.03-.33,2.06-.8,3.65-1.92,4.07-.26.1-.54.14-.8.09-.08-.01-.16-.05-.24-.07-.62,2.92-1.44,5.23-2.5,6.77-1.25,1.83-2.2,3.2-3.1,4.24-2.02,2.34-3.69,2.92-7.53,2.92Z"/>
  <path class="st3" d="M88.25,56.36l-.14-6.65c0-2.99-2.42-5.41-5.42-5.41h-14.62c-2.99,0-5.41,2.42-5.41,5.41v6.83c-.63-.9-1.42-1.41-2.18-1.28l-.45-5.89c-.11-3.07,1.05-6.05,3.15-8.28,3.05-3.23,6.09-4.28,12.19-4.28h.02c6.09,0,9.14,1.05,12.19,4.28,2.11,2.23,3.27,5.21,3.15,8.28l-.45,5.89c-.77-.13-1.42.19-2.05,1.1Z"/>
  <path class="st3" d="M60.63,48.67c8.18-.19,17.47,1.71,24.86-3.6,2.83-1.58.79-4.41.79-4.41h-22.2l-3.45,8.02Z"/>
  <path class="st0" d="M45.95,105.9v-10.04c0-2.28,1.32-4.36,3.38-5.32,4.82-2.23,9.64-4.52,13.37-6.87,2.1-1.33,3.86-2.67,5.09-4.02,1.42,2.79,3.1,5.39,7.6,5.72,4.5-.34,6.17-2.93,7.6-5.72,1.23,1.35,2.99,2.7,5.09,4.02,3.74,2.35,8.55,4.64,13.37,6.87,2.06.95,3.38,3.04,3.38,5.32v10.04h-58.89Z"/>
  <path class="st2" d="M75.39,102.54l-7.6-22.89c1.79,2.33,4.08,4,7.6,4.09,3.51-.09,5.81-1.75,7.6-4.09l-7.6,22.89Z"/>
  <polygon class="st1" points="75.39 102.54 73.99 98.3 73.99 86.49 76.79 86.49 76.79 98.3 75.39 102.54"/>
  <path class="st4" d="M75.39,83.73c-3.51-.08-5.81-1.75-7.59-4.08l1.92,5.32c1.52,1.02,3.35,1.67,5.67,1.72,2.32-.05,4.15-.69,5.67-1.72l1.92-5.32c-1.79,2.34-4.09,4-7.59,4.08Z"/>
  <path class="st5" d="M73.65,84.77c0,.38-.31.69-.69.69s-.69-.31-.69-.69.31-.69.69-.69.69.31.69.69Z"/>
  <path class="st5" d="M77.13,84.77c0,.38.31.69.69.69s.69-.31.69-.69-.31-.69-.69-.69-.69.31-.69.69Z"/>
  <path class="st6" d="M75.39,105.86c-4.56-6.86-7.75-12.11-10.9-18.49-.12-.24,2.79-2.1,2.67-2.34-.1-.2-3.71.23-3.81.03-.22-.46-.44-.93-.66-1.39,2.1-1.33,3.86-2.67,5.09-4.02l7.6,22.88,7.6-22.88c1.23,1.35,2.99,2.7,5.09,4.02-.22.47-.44.93-.66,1.39-.1.2-3.71-.23-3.81-.03-.11.24,2.79,2.1,2.67,2.34-3.14,6.38-6.33,11.63-10.9,18.49Z"/>
  <polygon class="st8" points="61.57 59.13 59.81 52.84 62.2 52.61 62.41 58.89 61.57 59.13"/>
  <polygon class="st8" points="89.3 59.13 88.46 58.89 88.67 52.61 91.06 52.84 89.3 59.13"/>
  <path class="st8" d="M75.44,79.18h-.05c-14-1.49-13.84-19.99-13.83-20.18,0-.1.68-5.58.71-7.75h.87c-.04,2.23-.69,7.58-.71,7.81,0,.13-.15,17.8,13.01,19.24,13.17-1.44,13.01-19.11,13.01-19.29-.02-.18-.67-5.53-.71-7.75h.87c.04,2.16.7,7.64.71,7.69,0,.23.17,18.73-13.83,20.22h-.05Z"/>
  <g>
    <path class="st8" d="M75.44,36.16s-.03,0-.05,0c-1.54,0-2.79-.64-2.79-1.43s1.25-1.42,2.79-1.43c.02,0,.03,0,.05,0,.02,0,.03,0,.05,0,1.54,0,2.79.64,2.79,1.43s-1.25,1.42-2.79,1.43c-.02,0-.03,0-.05,0Z"/>
    <path class="st0" d="M59.63,53.48v-2.48c1.34-13.15,6.91-16.09,15.76-16.27.02,0,.03,0,.05,0,.02,0,.03,0,.05,0,8.86.18,14.42,3.13,15.76,16.27v2.48h-31.62Z"/>
    <path class="st0" d="M75.44,58.15s-.03,0-.05,0c-10.52-.22-10.25-3.39-15.76-4.67,1.95-.11,10.55-.48,15.76-.48.02,0,.03,0,.05,0s.03,0,.05,0c5.21,0,13.81.37,15.76.48-5.51,1.28-5.23,4.45-15.76,4.67-.02,0-.03,0-.05,0Z"/>
    <path class="st8" d="M59.63,53.48v-1.57c5.13-.48,10.65-.74,15.76-.74h.09c5.11,0,10.64.26,15.76.74v1.57h-31.62Z"/>
  </g>
  <path class="st8" d="M75.44,79.65s-.04,0-.06,0c-2.12,0-3.84-.7-3.84-1.56s1.72-1.56,3.84-1.56c.02,0,.04,0,.06,0,.02,0,.04,0,.06,0,2.12,0,3.84.7,3.84,1.56s-1.72,1.56-3.84,1.56c-.02,0-.04,0-.06,0Z"/>
</svg>