<?xml version="1.0" encoding="UTF-8"?>
<svg id="Layer_1" xmlns="http://www.w3.org/2000/svg" version="1.1" viewBox="0 0 148.18 148.18">
  <!-- Generator: Adobe Illustrator 29.0.1, SVG Export Plug-In . SVG Version: 2.1.0 Build 192)  -->
  <defs>
    <style>
      .st0 {
        fill: #262626;
      }

      .st1 {
        fill: #662711;
      }

      .st2 {
        fill: #f39208;
      }

      .st3 {
        fill: #9a3a18;
      }

      .st4 {
        fill: #eeeded;
      }

      .st5 {
        fill: #15899a;
      }

      .st6 {
        fill: #f8b273;
      }

      .st7 {
        fill: #3d3d3b;
      }
    </style>
  </defs>
  <rect class="st5" x="65.41" y="94.27" width="11.28" height="19.26"/>
  <path class="st5" d="M51.11,46.06c-.57,4.3,9.46,15.75,26.56,16.74,24.62,1.43,33.97-11.51,33.48-16.45-.49-4.93-13.24.65-30.53,2.37-17.29,1.72-28.45-10.66-29.51-2.67Z"/>
  <path class="st3" d="M89.29,84.04c-.14,7.81-6.59,14.04-14.4,13.9-6.74-.19-12.5-1.21-17.23-2.85-20.97-7.25-22.11-26.78-1.39-41.68,1.08-.78,2.24-1.55,3.45-2.3l29.19-3.32.38,36.26Z"/>
  <path class="st1" d="M57.19,92.76c.3.97.45,1.73.46,2.32-20.97-7.25-22.11-26.78-1.39-41.68l5.59,1.28s-10.21,20.29-4.66,38.08Z"/>
  <g>
    <path class="st4" d="M70.97,75.27h-.14c-4.13.07-7.43,3.77-7.35,8.24l.1,5.52.03,1.95,15.13-.26-.03-1.95-.1-5.52c-.08-4.47-3.5-8.05-7.63-7.98ZM64.37,89.02l-.1-5.52c-.07-3.99,2.88-7.29,6.57-7.36h.14c3.69-.07,6.75,3.13,6.82,7.12l.1,5.52-13.53.24Z"/>
    <rect class="st4" x="70.61" y="74.04" width=".57" height="1.8" transform="translate(-1.29 1.25) rotate(-1)"/>
    <rect class="st0" x="69.76" y="57.52" width="1.96" height="17.05" transform="translate(-1.14 1.24) rotate(-1)"/>
  </g>
  <g>
    <polygon class="st6" points="98.42 74.82 98.26 78.16 94.92 78.32 73.88 57.28 77.38 53.78 98.42 74.82"/>
    <path class="st7" d="M79.71,58.7c0,.39-.32.71-.72.71s-.72-.32-.72-.71.32-.71.72-.71.72.32.72.71Z"/>
    <ellipse class="st7" cx="81.62" cy="61.32" rx=".72" ry=".71"/>
    <ellipse class="st7" cx="84.24" cy="63.95" rx=".72" ry=".71"/>
    <ellipse class="st7" cx="86.87" cy="66.57" rx=".72" ry=".71"/>
    <path class="st7" d="M90.21,69.19c0,.39-.32.71-.72.71s-.72-.32-.72-.71.32-.71.72-.71.72.32.72.71Z"/>
    <ellipse class="st7" cx="92.12" cy="71.82" rx=".72" ry=".71"/>
    <ellipse class="st7" cx="94.74" cy="74.44" rx=".72" ry=".71"/>
  </g>
  <path class="st2" d="M107.09,39.13l-.92,6.39c-.55,3.8-3.74,6.64-7.56,6.78l-11,.37c-2.03.07-4.05.4-5.98.94-2.1.6-4.13,1.47-6.01,2.61-5.75,4.13-12.28,4.01-19.34,1.06-3.65-1.73-3.35-4.61-1.7-6.59l2.1-2.5c1.18-1.42,2.77-2.39,4.5-2.79,1.33-.32,2.76-.29,4.12.13,1.81.56,3.77.91,5.82,1.04,12.66,1.72,25.06-.46,33.13-9.4.81-.46,1.73-.25,2.29.32.04.03.06.06.08.09.35.39.55.93.46,1.54Z"/>
  <path class="st7" d="M107.09,39.13l-.92,6.39c-.55,3.8-3.74,6.64-7.56,6.78l-11,.37c-2.03.07-4.05.4-5.98.94-10.18,1.79-23.62-2.82-20.45-8.2,1.33-.32,2.73-.18,4.12.13,1.94.43,3.88.79,5.82,1.04,12.66,1.72,25.06-.46,33.13-9.4.66-.73,1.67-.41,2.29.32.04.03.06.06.08.09.34.43.54.98.46,1.54Z"/>
</svg>